<?xml version="1.0" standalone="no"?>
<!DOCTYPE svg PUBLIC "-//W3C//DTD SVG 20010904//EN"
 "http://www.w3.org/TR/2001/REC-SVG-20010904/DTD/svg10.dtd">
<svg version="1.0" xmlns="http://www.w3.org/2000/svg"
 width="334.000000pt" height="334.000000pt" viewBox="0 0 334.000000 334.000000"
 preserveAspectRatio="xMidYMid meet">
<metadata>
Created by potrace 1.11, written by Peter Selinger 2001-2013
</metadata>
<g transform="translate(0.000000,334.000000) scale(0.100000,-0.100000)"
fill="#000000" stroke="none">
<path d="M1584 3331 c6 -9 0 -10 -20 -5 -23 6 -26 4 -21 -9 3 -9 2 -19 -3 -22
-15 -9 -12 -27 3 -22 6 2 11 10 9 16 -1 7 2 10 8 6 5 -3 10 -1 10 4 0 6 -5 11
-12 11 -6 0 -8 3 -4 7 4 5 13 0 20 -9 8 -11 17 -14 27 -7 10 6 11 9 1 9 -7 0
-11 4 -7 9 3 5 0 13 -6 17 -8 4 -9 3 -5 -5z"/>
<path d="M1617 3333 c-5 -7 -6 -17 -2 -22 3 -6 -4 -15 -15 -21 -11 -6 -20 -8
-20 -5 0 4 -7 -1 -16 -9 -8 -9 -22 -16 -31 -16 -9 0 -13 -6 -10 -15 4 -8 2
-17 -3 -20 -5 -3 -7 -14 -5 -25 2 -11 0 -22 -5 -25 -5 -3 -7 -14 -5 -25 2 -11
0 -20 -5 -20 -5 0 -7 -9 -5 -20 2 -11 -1 -20 -7 -20 -6 0 -8 -9 -5 -20 3 -11
1 -20 -4 -20 -5 0 -9 -5 -9 -11 0 -5 5 -7 10 -4 6 3 10 1 10 -5 0 -6 4 -9 9
-6 5 3 14 -1 21 -9 11 -13 9 -15 -11 -13 -14 2 -23 -2 -22 -9 1 -6 -4 -14 -12
-17 -18 -6 -19 -1 -4 26 8 15 8 19 0 14 -6 -4 -11 -2 -11 3 0 6 -5 11 -12 11
-9 0 -9 -3 0 -12 7 -7 12 -17 12 -23 0 -5 -5 -3 -10 5 -9 13 -11 13 -21 0 -8
-12 -9 -10 -5 10 3 14 3 19 0 12 -5 -10 -9 -10 -22 0 -14 11 -14 9 1 -12 21
-30 22 -41 2 -34 -8 4 -13 10 -10 15 3 4 -4 13 -16 19 -17 9 -20 9 -14 0 5 -9
2 -10 -13 -6 -11 4 -23 2 -27 -3 -4 -7 1 -8 12 -4 14 5 16 3 6 -7 -6 -7 -9
-19 -6 -26 4 -10 0 -12 -11 -8 -9 3 -14 9 -12 13 3 4 1 13 -3 20 -13 20 -52
-4 -44 -27 6 -16 5 -16 -14 1 -13 11 -23 14 -27 8 -8 -13 -36 -3 -33 12 1 6
-5 11 -13 12 -8 1 -13 7 -12 15 2 8 0 12 -3 8 -4 -4 -21 11 -36 32 -16 22 -33
40 -38 40 -5 0 -13 9 -16 20 -7 22 -30 27 -41 8 -5 -8 -2 -9 9 -5 18 7 42 -24
29 -38 -4 -5 0 -6 9 -2 12 4 16 1 12 -13 -3 -10 0 -21 6 -24 6 -4 8 2 6 14 -2
12 0 18 6 14 6 -3 8 -8 5 -12 -3 -3 2 -11 12 -19 16 -12 16 -14 -2 -28 -11 -8
-15 -15 -10 -15 6 0 16 6 24 13 12 10 12 9 2 -4 -6 -9 -9 -19 -5 -23 4 -4 -1
-4 -12 0 -20 7 -20 6 0 -10 20 -17 20 -17 -3 -6 -12 6 -20 15 -17 20 3 5 1 11
-5 15 -5 3 -10 -1 -10 -9 0 -8 5 -18 11 -21 7 -5 4 -14 -8 -28 -18 -22 -18
-22 3 -4 11 9 24 17 28 17 5 0 0 -8 -11 -17 -10 -10 -12 -13 -4 -8 12 9 12 7
0 -12 -8 -13 -16 -18 -20 -12 -9 15 -17 13 -37 -8 -9 -10 -14 -14 -9 -9 13 17
8 28 -10 22 -11 -4 -8 1 7 13 13 11 28 17 32 15 3 -2 9 0 13 5 3 6 -4 8 -15 6
-13 -3 -18 0 -14 7 5 7 2 8 -6 3 -8 -5 -11 -4 -7 2 4 6 1 13 -7 16 -8 3 -13
-1 -12 -11 1 -11 -5 -16 -16 -14 -10 2 -18 -2 -18 -8 0 -6 4 -9 8 -6 4 2 14 1
21 -3 9 -6 10 -11 2 -15 -6 -4 -11 -2 -11 4 0 6 -5 8 -11 4 -8 -5 -8 -9 1 -14
9 -5 9 -9 1 -14 -6 -4 -11 -1 -11 6 0 10 -2 10 -9 -1 -5 -8 -8 -23 -6 -33 3
-12 0 -16 -8 -11 -7 4 -5 -2 3 -12 12 -15 12 -17 1 -10 -10 6 -12 4 -6 -4 5
-9 10 -10 18 -2 6 6 15 11 21 11 5 0 1 -6 -9 -14 -11 -8 -24 -12 -29 -9 -5 4
-6 0 -1 -8 7 -11 5 -11 -10 1 -15 12 -17 12 -10 1 6 -10 4 -12 -6 -6 -11 7
-12 6 -2 -7 7 -8 9 -19 5 -23 -4 -5 0 -5 8 0 8 5 12 4 7 0 -11 -13 -38 -15
-31 -3 4 6 2 8 -4 4 -5 -3 -12 -3 -15 1 -2 5 -2 2 0 -6 4 -15 -14 -41 -28 -41
-5 0 -9 5 -9 11 0 5 4 8 9 5 5 -3 11 0 14 7 7 18 -8 43 -17 29 -3 -6 -1 -12 6
-14 8 -3 6 -6 -4 -10 -16 -7 -20 14 -5 28 4 4 7 12 7 18 0 5 -6 1 -14 -10 -14
-19 -15 -18 -13 3 0 12 4 20 8 17 4 -2 13 4 20 13 12 14 11 15 -6 10 -11 -4
-27 -2 -35 3 -13 8 -12 10 3 10 9 0 17 5 17 11 0 5 -5 7 -12 3 -7 -4 -8 -3 -4
4 4 7 2 12 -4 12 -6 0 -8 5 -4 12 5 7 2 9 -7 4 -8 -4 -6 -1 4 8 11 8 26 12 35
8 15 -5 15 -3 3 11 -9 11 -18 14 -30 8 -9 -5 -23 -6 -31 -3 -12 4 -13 3 -3
-10 7 -8 10 -18 6 -21 -3 -4 0 -13 7 -22 7 -9 10 -18 7 -22 -4 -3 -1 -15 5
-27 7 -11 13 -30 14 -41 2 -24 -20 -58 -31 -47 -5 4 -5 2 -1 -5 4 -7 13 -10
21 -7 8 4 12 10 9 15 -3 5 0 9 6 9 7 0 9 -7 6 -16 -4 -10 -2 -13 6 -8 6 4 8 3
5 -3 -4 -6 1 -10 11 -9 9 0 17 -6 17 -14 0 -9 -7 -14 -20 -12 -16 3 -17 1 -8
-9 10 -10 16 -9 30 2 17 13 17 13 3 -5 -12 -16 -12 -18 -1 -11 9 5 12 4 7 -3
-4 -6 -14 -9 -24 -6 -10 4 -13 3 -6 -3 7 -5 4 -14 -8 -25 -10 -10 -18 -13 -18
-8 0 6 -5 10 -11 10 -8 0 -8 -5 1 -15 7 -8 9 -15 6 -15 -4 0 -2 -10 5 -21 9
-17 8 -20 -2 -14 -8 6 -10 4 -4 -5 5 -8 4 -11 -3 -6 -6 4 -9 14 -6 24 5 14 4
14 -4 3 -7 -10 -7 -20 1 -32 10 -16 12 -15 28 5 15 18 16 23 4 32 -8 6 -12 14
-8 17 3 4 15 -3 26 -16 18 -20 19 -20 13 -2 -4 11 -4 16 0 12 4 -4 13 -2 21 4
10 9 13 8 13 -2 0 -10 3 -10 12 -1 9 9 9 15 0 24 -7 7 -12 17 -12 23 1 5 10
-1 20 -14 11 -13 20 -19 20 -14 0 5 -6 15 -12 22 -11 10 -9 12 7 9 11 -1 23
-7 26 -12 4 -4 10 -3 13 3 4 6 3 11 -1 11 -5 0 -9 9 -10 20 -1 11 4 19 10 17
7 -1 13 5 13 13 3 32 5 34 14 20 6 -10 4 -22 -5 -37 -21 -32 -18 -36 7 -11 13
13 22 26 21 30 -6 16 15 8 21 -8 9 -23 8 -24 -11 -17 -10 4 -14 2 -10 -4 4 -6
0 -16 -8 -23 -8 -7 -15 -9 -15 -5 0 5 -9 -2 -19 -14 -14 -16 -21 -18 -24 -9
-4 8 -6 7 -6 -4 -1 -10 -8 -18 -17 -18 -8 0 -13 -4 -10 -9 3 -5 -1 -14 -9 -21
-8 -7 -15 -9 -15 -6 0 4 -14 -9 -31 -29 -17 -19 -35 -32 -40 -29 -5 3 -9 -2
-9 -10 0 -9 -5 -16 -11 -16 -5 0 -7 -5 -4 -10 4 -6 1 -9 -7 -8 -7 2 -12 -2
-11 -8 1 -6 -17 -32 -41 -57 -24 -26 -38 -47 -32 -48 6 0 1 -5 -11 -11 -13 -6
-23 -15 -23 -20 0 -5 6 -6 13 -3 6 4 0 -4 -15 -17 -28 -23 -39 -46 -16 -32 7
4 8 3 4 -5 -4 -6 -12 -8 -18 -5 -7 5 -9 1 -5 -9 4 -12 2 -14 -11 -10 -15 6
-15 5 -3 -10 23 -28 0 -19 -25 10 -16 19 -20 29 -12 34 7 4 16 5 20 3 4 -3 8
-1 8 5 0 18 -16 20 -38 5 -20 -14 -33 -51 -14 -41 4 2 20 -12 37 -32 25 -31
26 -33 5 -16 -14 11 -38 34 -54 50 -22 23 -27 25 -22 10 6 -15 4 -17 -5 -8
-14 14 -3 34 15 27 7 -3 18 2 25 10 10 12 7 18 -18 32 -17 10 -31 22 -31 27 0
5 16 -3 36 -18 43 -33 57 -27 16 6 -15 14 -32 31 -37 39 -4 8 4 4 18 -9 15
-14 27 -19 27 -13 0 7 5 12 11 12 8 0 8 -5 -1 -15 -7 -8 -8 -15 -2 -15 5 0 15
6 21 14 14 17 1 28 -33 30 -17 1 -21 7 -21 40 0 23 -5 41 -13 44 -8 2 -10 -3
-6 -15 5 -14 4 -15 -4 -3 -6 8 -9 17 -6 21 2 4 0 10 -6 14 -5 3 -10 1 -10 -6
0 -7 -3 -10 -6 -6 -4 3 3 18 15 33 l21 27 -3 -24 c-2 -14 3 -29 12 -36 25 -19
36 -15 17 6 -10 11 -16 26 -13 33 4 9 6 9 6 -3 1 -17 61 -79 61 -63 0 6 -11
21 -25 34 -14 13 -25 29 -25 36 0 7 -8 17 -17 23 -17 9 -16 12 6 33 17 15 23
17 18 6 -8 -22 19 -46 35 -30 9 9 8 12 -5 12 -9 0 -17 5 -17 10 0 7 6 7 19 0
27 -14 36 -13 22 4 -10 12 -53 28 -83 30 -3 1 -10 4 -14 9 -12 12 -26 8 -18
-5 4 -7 -2 -5 -13 5 -20 17 -21 17 -28 0 -6 -16 -9 -15 -29 10 -16 20 -32 29
-54 29 -18 1 -32 4 -32 7 0 19 -39 7 -48 -15 -16 -33 -6 -53 24 -48 13 2 24 0
24 -4 0 -14 -50 -8 -59 7 -6 8 -16 -3 -35 -38 -31 -60 -33 -70 -8 -48 15 14
19 14 19 3 0 -8 -3 -15 -6 -14 -3 0 -9 -1 -13 -2 -5 -1 -14 -3 -20 -4 -7 -1
-12 -7 -11 -14 2 -7 -2 -12 -8 -12 -6 0 -8 -7 -5 -16 3 -8 2 -12 -4 -9 -21 13
-9 -10 17 -32 21 -19 29 -21 42 -10 14 11 14 10 2 -6 -13 -16 -12 -21 11 -42
14 -13 29 -21 32 -18 3 4 6 1 6 -4 0 -6 17 -30 38 -52 30 -33 41 -38 51 -28
10 10 11 6 7 -16 -4 -24 -2 -28 12 -23 12 5 11 1 -4 -11 -25 -20 -49 -86 -40
-109 4 -10 2 -13 -6 -8 -8 5 -9 2 -5 -9 4 -10 2 -17 -4 -17 -6 0 -9 -9 -6 -20
3 -11 2 -20 -3 -20 -4 0 -7 -17 -6 -38 2 -26 -2 -39 -11 -39 -10 0 -10 4 -1
14 10 12 7 13 -18 7 -16 -4 -33 -10 -39 -13 -5 -4 -23 -8 -39 -10 -15 -1 -51
-9 -80 -17 -53 -15 -78 -21 -109 -23 -14 -1 -17 -10 -16 -53 1 -29 7 -59 13
-67 8 -11 8 -13 -1 -8 -8 5 -11 0 -10 -13 1 -11 5 -20 10 -20 6 0 5 -5 0 -12
-10 -13 -12 -93 -3 -101 3 -2 68 -20 145 -40 77 -20 141 -41 143 -47 2 -5 9
-7 14 -4 7 4 8 2 4 -4 -10 -16 4 -103 15 -96 5 3 7 -1 4 -8 -3 -7 4 -40 15
-73 l19 -60 -114 -110 -113 -110 63 -105 c35 -58 70 -109 77 -113 8 -5 69 7
152 30 l139 38 93 -95 94 -95 -40 -139 c-22 -76 -40 -144 -40 -150 0 -6 19
-21 43 -34 23 -13 75 -42 116 -64 l75 -41 104 107 104 108 92 -27 c51 -14 109
-28 129 -32 l36 -5 25 -107 c30 -123 29 -121 15 -121 -5 0 -8 4 -4 9 3 5 1 12
-4 15 -5 4 -8 -1 -7 -11 2 -9 9 -19 17 -22 9 -4 15 -21 15 -48 1 -24 0 -43 -1
-43 -2 0 -9 8 -16 17 -8 9 -9 14 -3 10 7 -4 12 3 12 18 0 25 -29 51 -42 38 -3
-3 -6 0 -6 7 0 9 -5 7 -14 -6 -12 -15 -17 -17 -27 -7 -16 16 -29 17 -29 2 0
-5 4 -8 9 -5 13 9 31 -18 22 -33 -5 -7 -12 -13 -17 -14 -5 -1 -8 -6 -6 -12 2
-5 -8 0 -21 13 l-25 24 2 -26 c0 -17 6 -24 14 -21 6 2 12 0 12 -6 0 -21 -33
-3 -35 19 -1 12 -7 28 -13 34 -8 8 -10 4 -6 -15 2 -16 0 -27 -6 -27 -6 0 -8 5
-4 12 5 7 2 9 -8 5 -10 -3 -23 3 -34 16 -11 12 -15 19 -10 15 5 -4 15 -3 23 3
9 9 13 8 13 0 0 -6 -5 -11 -11 -11 -5 0 -8 -4 -4 -10 3 -5 12 -7 20 -4 11 5
11 11 3 30 -10 22 -12 22 -24 6 -12 -16 -13 -16 -19 1 -5 11 -11 14 -19 8 -13
-10 -55 -9 -76 3 -8 5 -5 -2 8 -16 13 -14 22 -31 20 -38 -2 -7 2 -14 9 -17 6
-2 10 4 8 14 -4 26 5 36 21 22 8 -6 14 -8 14 -3 0 10 29 -28 30 -38 0 -5 -5
-8 -10 -8 -6 0 -9 5 -8 11 2 6 -2 13 -7 15 -6 2 -11 -5 -12 -16 -1 -12 4 -20
14 -20 9 0 13 -6 9 -15 -3 -9 0 -15 10 -15 8 0 12 -5 8 -11 -4 -8 -9 -8 -17 0
-17 17 -27 13 -26 -11 1 -18 2 -19 6 -5 2 9 9 15 14 11 5 -3 7 -10 4 -15 -4
-5 -1 -9 4 -9 6 0 11 5 11 10 0 6 12 2 27 -7 15 -10 24 -13 20 -7 -4 7 1 18
10 25 15 12 16 12 10 -4 -4 -10 -3 -16 2 -12 6 3 14 -3 20 -12 6 -10 11 -13
11 -8 0 6 -5 16 -12 23 -6 6 -8 15 -4 19 4 4 11 2 15 -5 11 -18 48 -23 48 -7
0 8 -5 11 -10 8 -6 -4 -7 -1 -2 8 7 11 5 11 -10 -1 -15 -12 -17 -12 -10 -1 5
9 4 12 -3 7 -6 -3 -14 -1 -18 5 -4 8 -9 7 -16 -2 -8 -11 -9 -11 -5 1 2 8 9 15
16 15 6 0 16 7 22 15 9 13 10 13 6 -2 -8 -23 4 -31 18 -11 9 13 14 13 20 3 6
-9 4 -11 -5 -5 -8 5 -11 3 -8 -6 3 -8 11 -13 17 -11 7 1 22 -3 34 -10 12 -7
25 -12 29 -13 4 0 14 -9 22 -20 12 -16 17 -18 28 -7 11 11 10 12 -5 6 -17 -6
-17 -5 0 25 20 35 43 41 40 12 0 -11 -5 -17 -9 -15 -5 3 -5 11 -2 17 4 8 2 7
-7 -1 -12 -11 -12 -14 0 -21 31 -19 48 13 26 48 -5 10 -4 12 4 7 6 -4 18 -3
25 3 9 8 13 7 13 -4 0 -8 -4 -12 -8 -10 -4 3 -9 -1 -12 -9 -4 -11 1 -13 19
-10 18 3 24 0 24 -13 0 -15 -2 -16 -10 -3 -9 13 -10 13 -10 0 0 -13 -1 -13
-10 0 -5 8 -10 11 -10 5 0 -5 5 -17 10 -25 5 -8 10 -10 10 -3 0 6 11 10 25 9
19 -3 23 0 16 13 -5 9 -6 22 -3 30 2 8 0 11 -5 8 -5 -3 -10 0 -10 8 0 9 4 11
11 6 6 -5 19 -7 29 -6 9 2 17 -1 17 -7 0 -6 -7 -7 -16 -4 -10 4 -14 1 -11 -6
5 -17 38 -17 55 -1 8 7 17 11 22 8 5 -3 10 0 13 7 2 7 2 2 0 -11 -4 -21 -2
-23 12 -11 9 8 13 21 10 34 -5 17 -3 17 9 -4 8 -14 12 -29 9 -33 -3 -5 5 -6
18 -3 19 6 20 5 8 -3 -9 -6 -26 -9 -38 -6 -11 2 -21 0 -21 -5 0 -5 15 -8 33
-6 17 2 38 -1 46 -7 10 -9 16 -7 26 7 15 20 24 20 47 -1 16 -14 18 -14 24 1 5
14 9 15 15 5 5 -8 7 0 5 19 -1 18 -8 38 -14 44 -15 15 -15 3 -1 -24 9 -16 8
-19 -2 -13 -8 6 -10 4 -4 -6 8 -12 6 -12 -8 0 -12 9 -17 10 -17 2 0 -7 -5 -9
-11 -5 -8 4 -7 9 2 15 8 5 10 9 6 9 -16 0 -56 -37 -49 -45 4 -4 0 -6 -8 -3 -8
3 -15 10 -15 17 0 6 -7 16 -15 22 -13 8 -12 9 3 7 12 -2 29 10 45 31 26 33 26
34 4 27 -14 -5 -22 -3 -22 4 0 6 -5 8 -10 5 -8 -5 -7 -11 1 -21 14 -17 7 -27
-21 -31 -24 -3 -32 8 -18 27 8 12 9 12 5 -2 -4 -12 0 -16 14 -15 26 2 24 12
-6 35 -21 17 -23 21 -9 26 9 4 19 4 22 1 3 -3 0 -5 -7 -5 -7 0 -9 -5 -6 -10 4
-6 12 -7 18 -3 18 11 38 13 32 2 -4 -5 1 -6 10 -2 12 4 13 8 5 13 -9 6 -6 14
9 29 11 11 17 21 12 21 -6 0 -13 -5 -17 -11 -3 -6 -17 -9 -30 -6 -13 2 -21 0
-18 -4 3 -5 12 -9 20 -9 8 0 12 -4 9 -10 -4 -6 -18 -4 -37 6 -16 9 -27 11 -24
5 4 -6 2 -11 -3 -11 -14 0 -14 17 -1 25 6 4 8 10 5 15 -8 12 43 203 57 211 6
4 30 10 54 14 23 3 76 16 118 29 l76 24 102 -109 c57 -60 108 -109 115 -109
24 0 223 132 222 149 0 9 -17 74 -37 145 l-37 129 95 94 95 94 147 -42 c81
-24 149 -41 151 -38 2 2 32 55 67 118 l63 114 -104 102 c-57 57 -107 101 -111
99 -4 -3 0 18 8 46 8 28 12 56 8 62 -4 6 -3 8 3 5 11 -7 43 102 43 143 0 12 3
19 8 17 4 -3 18 0 32 5 14 6 34 12 45 13 11 2 31 6 45 9 14 3 59 14 100 24
l75 18 -2 104 c-1 58 -2 119 -2 136 -1 29 -4 32 -58 44 -32 8 -65 14 -73 14
-8 0 -17 3 -20 6 -10 12 -119 37 -113 26 4 -6 -2 -3 -13 6 -19 17 -21 17 -39
0 -19 -16 -19 -16 -3 3 16 20 16 102 0 115 -4 3 -8 18 -10 35 -2 16 -8 35 -14
42 -5 7 -7 17 -4 22 4 5 2 12 -4 16 -6 4 -8 10 -5 15 3 4 -7 13 -22 19 -21 9
-23 10 -5 7 16 -3 35 7 67 38 25 23 45 48 45 55 0 7 4 10 8 7 12 -7 84 68 75
78 -5 4 -1 6 7 4 8 -1 14 2 15 9 0 6 4 15 9 20 5 5 6 3 2 -4 -4 -7 -2 -13 3
-13 20 0 11 21 -55 131 -55 89 -71 109 -90 109 -13 0 -24 -5 -24 -11 0 -5 -5
-7 -12 -3 -8 5 -9 1 -4 -12 6 -15 5 -17 -5 -6 -7 6 -17 12 -22 12 -4 0 -5 -6
-1 -12 6 -10 4 -10 -8 0 -13 10 -18 10 -24 1 -5 -8 -3 -9 6 -4 9 6 11 4 5 -4
-4 -8 -11 -9 -17 -3 -10 10 -78 -8 -78 -21 0 -5 -4 -5 -10 -2 -5 3 -10 2 -10
-4 0 -5 6 -12 13 -14 9 -4 9 -6 -1 -6 -7 -1 -15 6 -18 14 -4 11 -11 12 -24 5
-9 -5 -20 -7 -24 -5 -3 3 -4 2 -1 -2 3 -3 -1 -13 -8 -21 -10 -13 -9 -15 8 -8
16 6 17 5 8 -5 -10 -10 -15 -9 -28 1 -17 14 -21 0 -3 -18 7 -7 17 -8 30 -1 10
6 18 6 18 0 0 -12 -29 -23 -41 -15 -5 3 -9 1 -9 -5 0 -16 20 -24 33 -12 9 7
16 5 25 -10 12 -19 6 -25 -22 -20 -5 1 -6 -5 -2 -14 3 -10 2 -14 -5 -10 -6 4
-8 13 -5 21 5 14 -5 19 -17 8 -11 -12 6 -35 49 -64 47 -31 61 -25 18 9 -27 21
-25 42 4 40 15 -1 15 -2 -1 -6 -16 -4 -15 -7 7 -30 31 -31 32 -35 7 -57 -12
-11 -21 -14 -26 -7 -3 6 -11 11 -17 11 -6 0 -3 -10 8 -22 28 -31 59 -82 45
-74 -6 4 -11 2 -11 -4 0 -6 -11 0 -23 14 -18 19 -26 23 -35 14 -9 -9 -12 -9
-12 -1 0 19 24 21 43 5 9 -8 17 -11 17 -5 0 13 -51 73 -63 73 -6 0 -3 -8 6
-18 15 -16 15 -19 -3 -29 -24 -16 -16 -56 10 -48 10 3 24 0 31 -8 8 -7 23 -18
34 -25 11 -6 15 -12 9 -12 -6 0 -23 10 -38 21 -15 12 -30 18 -34 14 -4 -4 -1
-10 6 -12 6 -3 12 -10 12 -16 0 -6 -11 0 -25 13 -28 26 -34 17 -8 -12 9 -10
11 -18 6 -18 -6 0 -14 7 -17 16 -3 8 -10 12 -16 9 -6 -4 -7 1 -3 11 4 12 3 15
-5 10 -8 -4 -10 -2 -6 7 3 8 0 18 -6 22 -9 6 -9 10 1 16 7 4 10 11 6 15 -3 4
-14 1 -24 -7 -11 -9 -14 -10 -9 -1 4 6 2 12 -3 12 -6 0 -10 3 -9 8 3 8 -31 63
-47 75 -5 5 0 5 13 2 22 -6 22 -5 10 14 -7 12 -14 17 -16 11 -7 -19 -22 -10
-42 23 -11 17 -23 31 -27 30 -5 -2 -8 1 -8 5 0 5 -18 24 -39 43 -74 64 -104
97 -98 104 4 4 0 6 -8 3 -8 -3 -20 1 -27 8 -7 7 -18 14 -25 17 -8 2 -9 8 -4
13 5 5 11 4 13 -4 3 -6 9 -10 14 -6 5 3 9 0 9 -6 0 -7 8 -9 23 -4 12 3 19 3
15 -1 -12 -13 11 -43 29 -40 27 4 62 -32 56 -58 -4 -20 -3 -20 10 3 9 14 13
28 11 32 -3 5 1 8 8 8 9 0 9 3 -2 10 -13 9 -13 10 0 10 13 0 13 1 0 10 -11 7
-6 8 18 5 19 -2 30 0 26 6 -3 5 -10 7 -15 4 -5 -4 -17 -1 -26 5 -14 8 -14 10
-3 9 32 -3 51 1 45 10 -3 5 -16 8 -29 5 -18 -3 -30 3 -45 22 -12 15 -21 21
-21 13 0 -11 -2 -11 -10 1 -6 9 -5 20 3 29 9 12 9 13 0 8 -8 -5 -11 -1 -8 14
4 21 4 21 -18 3 l-22 -19 19 23 c25 29 13 41 -16 16 -22 -19 -22 -19 -8 0 8
11 10 17 5 14 -7 -4 -11 3 -11 17 0 14 4 21 11 17 5 -3 3 3 -5 13 -8 10 -10
16 -5 13 6 -4 11 2 11 13 0 19 -1 19 -13 3 -9 -13 -13 -14 -13 -4 0 9 -4 8
-14 -5 -13 -18 -14 -18 -40 2 -15 13 -22 24 -16 28 5 3 10 1 10 -5 0 -6 5 -8
11 -4 8 5 8 9 -1 14 -8 5 -7 9 4 13 9 4 16 12 15 19 0 10 -2 10 -6 1 -2 -7
-10 -13 -15 -13 -6 0 -8 3 -5 7 4 3 1 13 -6 21 -9 13 -9 14 0 8 9 -5 11 -2 7
8 -8 20 -13 20 -38 -1 l-21 -18 20 25 20 25 -29 -25 -29 -25 19 27 c13 19 25
26 39 22 16 -4 15 -1 -5 11 -14 9 -17 14 -7 11 11 -4 16 -2 12 5 -4 5 -16 7
-28 4 -16 -5 -18 -4 -8 3 11 8 11 10 0 15 -11 4 -11 6 -1 6 7 1 11 5 7 10 -3
6 -23 -9 -45 -32 -25 -25 -36 -43 -29 -48 8 -4 8 -9 1 -13 -6 -3 -14 -2 -17 4
-5 8 -11 8 -20 0 -10 -8 -16 -7 -24 7 -6 10 -11 14 -11 9 0 -5 -8 -2 -17 5
-11 9 -10 3 6 -18 12 -18 18 -33 12 -33 -6 0 -18 12 -28 28 -9 15 -18 29 -20
31 -1 2 -10 -2 -20 -10 -15 -12 -16 -12 -10 3 7 19 -8 34 -18 18 -4 -6 -11 -8
-16 -4 -5 3 -7 9 -5 13 3 4 -1 8 -8 8 -9 0 -12 -7 -8 -16 3 -9 2 -13 -3 -9 -4
4 -14 3 -22 -3 -15 -13 -18 1 -3 19 6 6 7 10 4 7 -4 -2 -16 0 -27 6 -14 8 -18
8 -13 0 4 -6 3 -11 -2 -11 -9 0 -23 30 -26 55 -1 6 -4 15 -7 20 -4 6 -5 18 -4
28 2 9 -1 17 -6 17 -6 0 -8 4 -4 9 3 6 -3 15 -14 21 -14 7 -22 7 -26 0 -5 -8
-11 -8 -19 -1 -7 6 -16 8 -20 4 -4 -4 -4 1 -1 12 5 14 4 16 -3 7 -12 -17 -18
-16 -40 6 -10 9 -14 20 -9 23 5 4 4 9 -2 13 -6 4 -11 2 -11 -4 0 -6 -4 -9 -9
-6 -4 3 -17 -2 -27 -10 -10 -9 -13 -12 -6 -9 12 6 12 3 1 -16 -7 -13 -13 -32
-14 -41 -2 -26 -11 -30 -25 -13 -11 13 -10 14 4 9 9 -3 16 -2 16 4 0 5 -13 8
-30 7 -16 -1 -27 1 -25 6 3 4 1 10 -5 14 -5 3 -10 12 -10 18 0 8 3 8 9 -2 6
-9 11 -10 15 -2 4 6 1 11 -6 11 -7 0 -2 7 10 16 l22 15 -22 20 -23 19 21 18
c12 9 30 22 40 28 16 10 17 14 5 25 -8 8 -11 9 -7 2 3 -6 2 -14 -3 -17 -5 -4
-11 2 -13 11 -3 13 -6 15 -11 6z m-42 -84 c-4 -12 -3 -19 2 -16 5 3 15 2 23
-3 11 -7 9 -12 -10 -28 -16 -13 -20 -23 -14 -33 5 -8 9 -17 9 -21 0 -5 3 -7 7
-5 3 1 17 -8 30 -20 26 -24 44 -19 44 12 0 11 7 34 16 50 l17 30 10 -25 c5
-14 10 -19 10 -11 1 11 5 10 16 -5 8 -10 15 -15 15 -10 0 5 7 3 15 -4 8 -7 15
-9 15 -5 0 4 6 3 13 -2 6 -5 21 -8 33 -8 11 1 21 -3 22 -9 1 -11 9 -47 12 -56
1 -3 2 -9 1 -13 -1 -4 6 -21 14 -38 13 -23 21 -29 38 -25 12 3 16 3 9 0 -10
-5 -10 -9 -1 -20 6 -8 16 -10 23 -6 6 4 20 7 31 7 11 0 27 5 35 10 13 8 13 7
1 -8 -7 -9 -18 -14 -25 -10 -6 4 -5 -1 3 -10 13 -16 2 -25 -13 -9 -10 10 -56
10 -50 0 3 -4 0 -8 -6 -8 -7 0 -9 7 -6 17 4 10 4 15 1 11 -8 -8 -45 28 -46 45
0 9 -2 9 -6 -1 -2 -6 -10 -9 -15 -6 -6 4 -8 3 -5 -3 3 -5 -6 -10 -22 -10 -26
0 -29 7 -22 46 1 3 7 -3 14 -12 11 -16 14 -16 32 -2 16 12 17 14 3 9 -11 -4
-18 -1 -18 6 0 6 5 8 10 5 6 -3 10 -1 10 5 0 7 -7 10 -15 6 -8 -3 -18 2 -23
10 -5 9 -12 15 -15 15 -19 -3 -23 1 -24 18 -1 11 4 18 12 17 18 -3 32 -16 17
-16 -7 0 -12 -4 -12 -10 0 -5 3 -9 8 -9 4 1 9 0 12 -1 3 -1 13 -3 24 -5 13 -3
15 0 8 7 -6 6 -8 18 -5 27 4 14 3 14 -6 1 -9 -13 -15 -8 -13 11 1 8 -45 5 -53
-3 -4 -4 -14 -4 -23 -1 -10 4 -13 2 -8 -5 3 -6 1 -14 -5 -18 -8 -5 -10 -2 -5
7 4 8 0 5 -8 -5 -9 -11 -16 -15 -16 -9 0 7 4 15 10 18 5 3 15 16 20 28 11 22
11 22 -6 2 -13 -16 -15 -17 -11 -3 7 19 -8 34 -18 18 -4 -6 -11 -7 -17 -4 -7
4 -8 2 -4 -5 4 -6 12 -8 18 -5 6 4 8 1 6 -7 -3 -8 -12 -13 -19 -11 -11 3 -12
1 -1 -9 18 -19 15 -29 -10 -26 -14 1 -22 -3 -20 -10 1 -7 -3 -13 -9 -13 -6 0
-9 7 -6 14 4 10 1 13 -9 9 -7 -3 -14 1 -14 8 0 7 -3 9 -7 6 -9 -9 -34 13 -27
24 3 5 -3 6 -12 2 -14 -5 -16 -3 -11 13 7 19 7 19 -8 0 -8 -11 -15 -14 -15 -7
0 7 -4 10 -9 7 -8 -5 -8 15 -1 34 1 3 2 8 1 12 0 4 7 4 17 1 9 -3 14 -3 10 2
-4 4 -2 17 4 29 l11 21 -24 -20 c-13 -11 -18 -13 -11 -4 6 9 8 20 4 24 -4 5
-1 5 6 1 6 -4 12 -2 12 4 0 6 5 8 10 5 6 -3 10 -1 10 4 0 6 3 11 6 11 3 0 2
-10 -1 -21z m25 -159 c22 -17 44 -29 50 -25 6 4 8 10 5 15 -3 5 8 7 24 5 16
-2 38 3 48 11 21 16 47 19 38 4 -4 -6 -10 -8 -15 -5 -5 3 -11 1 -14 -4 -4 -5
1 -8 11 -7 16 3 73 -21 73 -30 0 -3 -4 -3 -9 1 -5 3 -12 1 -16 -5 -3 -5 -12
-10 -18 -10 -8 0 -8 3 2 9 9 6 10 11 2 15 -6 4 -11 2 -11 -4 0 -6 -10 -4 -24
5 -19 12 -30 14 -44 6 -11 -6 -23 -7 -27 -3 -5 4 -4 1 0 -7 6 -11 4 -13 -8 -8
-25 9 -31 -10 -7 -23 11 -6 18 -15 15 -21 -9 -14 -27 -11 -19 4 4 6 3 8 -1 4
-5 -4 -17 7 -28 25 -10 18 -16 25 -13 15 4 -11 2 -16 -5 -12 -6 4 -8 13 -5 20
3 9 -2 12 -15 10 -12 -2 -19 1 -17 8 2 7 -2 14 -7 15 -6 2 -17 8 -26 13 -13 6
-16 4 -15 -14 1 -13 -4 -21 -12 -19 -8 1 -11 -2 -7 -8 3 -6 11 -7 17 -4 8 5 9
1 5 -10 -5 -11 -3 -15 5 -10 8 5 9 2 5 -10 -5 -11 -3 -15 5 -10 7 5 8 3 3 -6
-6 -10 -12 -8 -25 8 -10 12 -20 19 -22 16 -3 -2 -4 6 -3 18 1 13 4 24 5 26 3
2 7 17 9 32 2 18 50 2 91 -30z m-42 -7 c-8 -10 -7 -13 3 -13 11 0 11 -2 -1
-10 -13 -8 -13 -10 2 -10 9 0 18 5 20 11 2 6 10 -1 17 -15 18 -32 7 -45 -17
-23 -15 14 -19 15 -19 2 0 -8 3 -12 6 -10 4 2 15 -3 26 -11 18 -14 17 -14 -15
-12 l-35 3 0 -45 c-1 -25 -7 -56 -15 -70 -8 -14 -13 -30 -12 -35 1 -6 -8 -11
-21 -11 -12 0 -33 -4 -47 -9 -22 -7 -23 -6 -11 8 7 9 17 15 21 12 8 -5 70 53
70 65 0 4 -7 10 -15 14 -8 3 -15 11 -15 17 0 8 4 8 15 -1 10 -9 15 -9 15 -1 0
6 -4 11 -10 11 -5 0 -10 5 -10 11 0 5 5 7 10 4 6 -3 10 -1 10 4 0 15 -17 14
-27 -1 -4 -7 -15 -13 -23 -13 -8 0 -14 -8 -14 -17 2 -20 2 -20 -20 -12 -25 10
-19 20 24 39 30 13 37 21 28 27 -9 6 -6 7 8 3 31 -8 57 20 44 46 -6 10 -7 19
-3 19 4 0 1 5 -7 10 -13 9 -13 10 0 10 13 0 13 1 0 10 -12 7 -10 9 7 7 17 -1
19 -4 11 -14z m172 -23 c0 -5 3 -9 8 -8 10 3 52 -25 52 -36 0 -4 -6 -3 -14 3
-11 9 -16 9 -22 0 -4 -8 -3 -9 4 -5 7 4 12 3 12 -2 0 -14 -11 -21 -26 -15 -10
4 -11 10 -4 23 13 24 13 40 0 20 -8 -12 -10 -12 -10 -1 0 10 -3 11 -14 2 -12
-10 -13 -8 -9 8 5 21 23 29 23 11z m-35 -30 c-1 -16 -10 -40 -21 -51 -14 -16
-16 -23 -6 -26 6 -3 9 -10 5 -16 -4 -7 1 -6 11 2 9 8 15 20 12 28 -3 7 -3 20
0 28 5 13 9 13 34 0 16 -8 31 -11 34 -6 8 12 119 7 123 -6 2 -6 10 -18 17 -28
10 -15 16 -16 35 -6 17 10 26 10 37 0 13 -11 12 -14 -8 -25 -30 -17 -31 -17
-57 7 -22 20 -23 20 -17 3 5 -15 1 -20 -14 -20 -23 0 -25 6 -7 27 10 12 10 12
-2 2 -22 -19 -33 -16 -19 6 7 11 18 17 27 13 14 -5 14 -4 1 10 -9 9 -18 12
-21 6 -9 -14 -20 -12 -30 4 -6 9 -11 10 -16 2 -5 -6 -22 -10 -40 -9 -18 1 -30
-2 -27 -7 3 -4 1 -15 -4 -25 -7 -12 -4 -21 12 -34 11 -9 17 -21 13 -26 -5 -4
-13 0 -18 10 -13 23 -31 22 -47 -3 -7 -12 -8 -20 -2 -20 5 0 10 5 10 11 0 5 5
7 12 3 7 -4 8 -3 4 4 -11 19 5 14 20 -5 13 -17 15 -17 28 0 7 9 17 17 21 17 5
0 16 7 25 15 15 14 19 14 31 -2 12 -15 12 -16 -3 -10 -10 4 -18 2 -18 -4 0 -6
9 -9 20 -6 11 3 30 -3 44 -14 15 -12 31 -16 43 -12 16 6 16 5 4 -10 -9 -11
-10 -17 -2 -17 11 0 15 13 11 39 -1 13 1 13 14 2 15 -12 15 -16 1 -37 -11 -17
-12 -25 -3 -30 6 -4 8 -3 4 4 -3 6 1 15 10 20 9 5 15 12 15 15 -3 20 0 28 9
22 5 -3 7 -13 4 -23 -4 -13 -3 -14 4 -4 5 8 8 25 6 38 -1 16 2 24 9 21 14 -4
16 -37 3 -54 -5 -8 -4 -18 3 -27 7 -8 8 -16 4 -18 -4 -3 -1 -3 7 -1 30 9 34 8
45 -15 11 -21 13 -22 20 -5 5 10 7 23 6 28 -1 6 3 5 9 -1 9 -9 9 -17 1 -32 -8
-15 -7 -21 3 -25 10 -4 12 1 9 16 -5 22 -5 22 10 2 22 -28 11 -48 -16 -30 -29
18 -119 53 -154 60 -15 2 -29 9 -31 15 -2 5 -8 10 -13 10 -6 0 -7 -4 -4 -10 4
-7 -2 -7 -19 0 -14 5 -48 11 -77 14 -29 3 -56 11 -61 18 -4 7 -8 8 -8 2 0 -6
-7 -11 -15 -11 -9 0 -14 6 -11 14 3 7 1 13 -4 13 -6 0 -10 -7 -10 -16 0 -14
-3 -14 -15 -4 -10 9 -15 9 -15 1 0 -6 -5 -11 -11 -11 -6 0 -9 6 -6 14 3 8 -1
22 -8 33 -8 10 -15 13 -15 8 0 -6 5 -16 10 -21 8 -8 6 -15 -6 -25 -16 -12 -17
-12 -11 4 3 9 2 17 -3 17 -6 0 -10 -7 -10 -15 0 -24 -14 -17 -34 16 -10 17
-20 28 -24 25 -3 -3 2 -14 11 -24 15 -17 25 -44 11 -30 -3 4 -18 2 -34 -2 -36
-10 -44 6 -19 38 10 13 15 30 12 38 -5 14 12 20 20 7 2 -5 2 -2 1 5 -4 14 -2
14 20 6 9 -3 16 -10 16 -16 0 -5 -4 -6 -10 -3 -5 3 -10 1 -10 -5 0 -7 8 -9 20
-5 11 4 20 2 20 -4 0 -6 -4 -11 -10 -11 -5 0 -10 -5 -10 -12 0 -8 7 -5 18 5
16 17 16 19 -11 43 -16 13 -22 24 -14 24 7 0 23 -9 35 -20 12 -12 22 -17 22
-13 0 11 -20 40 -20 29 0 -5 -6 -4 -12 2 -16 12 -68 11 -60 -2 3 -5 0 -6 -6
-2 -15 9 -11 43 5 43 6 0 9 -5 6 -10 -4 -6 0 -8 10 -4 40 16 52 19 39 9 -11
-7 -11 -10 3 -16 20 -7 68 44 54 60 -5 6 -4 15 3 22 16 16 15 16 13 -18z m-55
-53 c-10 -9 -11 -9 -6 1 4 7 1 15 -8 18 -8 3 -12 12 -9 20 4 12 9 11 20 -6 12
-17 13 -24 3 -33z m90 43 c0 -5 -4 -10 -10 -10 -5 0 -10 5 -10 10 0 6 5 10 10
10 6 0 10 -4 10 -10z m495 1 c-3 -6 3 -14 12 -20 11 -6 13 -11 5 -11 -7 0 -11
-4 -8 -9 3 -5 -1 -14 -9 -21 -8 -7 -15 -16 -15 -21 0 -13 35 -6 56 11 10 8 15
10 11 3 -4 -6 -3 -14 2 -17 12 -8 9 -30 -7 -48 -16 -20 42 -65 63 -48 18 15
22 4 20 -47 -3 -48 0 -50 29 -25 21 17 21 17 3 -4 -18 -22 -12 -41 9 -23 9 7
12 6 9 -8 -3 -22 13 -55 24 -48 17 10 36 -28 36 -71 l1 -44 -25 24 c-15 13
-34 22 -43 21 -10 -2 -19 1 -19 6 -1 5 -2 15 -3 22 0 6 -8 12 -16 12 -8 1 -25
7 -38 13 -12 7 -27 10 -33 6 -14 -8 -60 16 -53 28 3 5 0 8 -7 7 -22 -4 -71 20
-64 31 7 12 -41 90 -56 90 -6 0 -9 -7 -5 -15 7 -19 -8 -19 -24 -1 -6 8 -17 13
-25 10 -16 -7 -29 12 -19 28 25 40 2 79 -34 58 -14 -8 -14 -10 -2 -10 11 0 11
-3 -3 -11 -14 -8 -22 -8 -30 0 -8 8 -16 6 -29 -6 -10 -9 -21 -13 -25 -9 -4 4
-1 12 7 17 12 8 11 9 -5 5 -11 -3 -27 -1 -35 5 -13 9 -12 10 2 5 10 -3 20 -1
24 5 4 7 10 6 19 -1 10 -8 21 -7 44 5 29 14 36 26 32 49 -1 5 5 6 12 3 8 -3
20 0 26 6 10 10 12 8 10 -9 0 -3 11 -14 25 -25 30 -24 54 -17 34 9 -11 15 -11
15 4 4 11 -9 18 -10 23 -2 5 8 11 8 20 0 9 -7 16 -6 24 3 6 8 8 17 4 20 -3 4
4 18 17 32 24 25 36 33 25 16z m-1041 -33 c4 4 7 3 6 -3 -7 -31 8 -40 36 -22
7 4 17 0 23 -7 8 -9 8 -16 2 -20 -5 -4 -13 -1 -17 5 -4 8 -9 7 -15 -2 -7 -12
-9 -12 -9 0 0 8 -7 4 -18 -9 -17 -21 -19 -21 -25 -6 -4 9 -3 14 2 11 5 -3 12
-2 15 3 2 4 -4 9 -16 9 -14 1 -18 -3 -14 -13 4 -10 1 -13 -7 -9 -6 4 -4 0 6
-8 9 -8 17 -18 17 -22 0 -4 -8 -1 -17 6 -14 12 -16 12 -8 0 6 -10 4 -12 -5 -6
-9 5 -11 4 -6 -3 5 -8 1 -10 -11 -6 -10 3 -14 2 -8 -3 16 -13 16 -40 0 -40 -8
0 -11 5 -8 10 9 14 -20 27 -34 15 -7 -6 -13 -7 -13 -3 0 4 -8 -3 -19 -16 -10
-13 -17 -29 -14 -35 2 -7 -1 -15 -8 -20 -8 -5 -10 -3 -4 6 5 8 4 11 -3 6 -6
-4 -8 -14 -5 -23 5 -13 2 -15 -11 -10 -11 5 -15 3 -10 -5 4 -6 3 -8 -3 -5 -11
7 -12 -48 -1 -59 4 -3 6 6 5 22 -2 23 2 29 18 29 13 0 19 6 17 17 -1 9 2 19 8
23 6 4 7 -1 3 -11 -5 -13 -2 -15 18 -9 18 5 21 4 9 -4 -13 -10 -13 -11 0 -11
13 0 13 -1 0 -10 -8 -5 -11 -12 -7 -17 5 -4 11 -3 15 2 13 18 31 15 37 -5 4
-11 11 -20 18 -20 8 0 8 3 -1 12 -15 15 -16 38 -2 38 6 0 10 -9 10 -20 0 -11
4 -20 8 -20 4 0 8 9 8 20 0 11 -4 20 -8 20 -4 0 -3 11 4 25 6 13 15 22 19 19
5 -3 4 -14 -1 -25 -8 -14 -7 -19 2 -19 10 0 10 -2 -1 -9 -9 -6 -10 -11 -2 -15
11 -7 14 3 12 39 -2 19 -1 19 13 2 21 -26 13 -38 -44 -69 -49 -25 -51 -26 -61
-6 -6 11 -17 17 -25 14 -8 -3 -13 -2 -9 3 3 5 -1 12 -7 14 -10 4 -9 8 2 16 10
7 11 11 3 11 -15 0 -38 -40 -34 -60 2 -8 0 -12 -5 -8 -8 9 -34 -9 -34 -24 0
-5 6 -6 13 -2 6 4 8 3 4 -2 -4 -4 -20 -9 -35 -10 -45 -2 -46 -3 -26 -26 10
-12 14 -18 7 -15 -6 4 -14 3 -17 -2 -7 -11 -39 -8 -43 5 -4 11 54 50 68 46 6
-1 7 3 3 9 -5 8 -3 10 7 4 11 -6 12 -5 2 5 -10 11 -10 17 0 29 10 14 10 14 -4
4 -9 -7 -19 -10 -22 -6 -4 3 -7 1 -7 -5 0 -7 5 -12 11 -12 5 0 7 -4 4 -10 -3
-5 -11 -10 -17 -10 -6 0 -8 3 -5 7 4 3 0 16 -8 29 -12 19 -12 24 0 34 8 6 20
13 27 14 30 4 40 17 26 34 -7 9 -8 13 -2 9 7 -4 17 0 24 8 7 8 16 13 20 10 4
-3 10 2 14 10 5 15 -9 29 -22 21 -4 -2 -8 6 -8 19 0 13 2 23 6 23 3 0 7 1 10
2 3 1 13 3 24 5 13 3 15 0 8 -7 -6 -6 -8 -17 -5 -25 4 -11 9 -9 20 7 10 14 22
20 34 17 13 -4 25 5 41 31 13 21 23 45 24 55 2 29 3 30 17 18 8 -6 17 -7 21
-3z m201 3 c-3 -6 3 -15 14 -20 26 -14 31 -14 31 4 0 8 5 15 10 15 16 0 12
-27 -5 -34 -8 -3 -14 -15 -12 -27 1 -12 -3 -24 -9 -26 -6 -2 -10 8 -9 25 1 20
-5 33 -19 42 -18 11 -19 11 -9 -1 6 -8 10 -32 8 -54 -1 -22 1 -45 6 -50 5 -7
0 -23 -10 -39 l-19 -28 -27 36 c-15 20 -24 40 -20 44 4 4 10 2 12 -4 2 -6 10
-20 18 -30 12 -16 16 -17 24 -4 5 8 7 18 4 23 -9 15 -10 51 -1 69 11 23 -9 33
-21 10 -5 -10 -6 -24 -1 -32 10 -16 4 -30 -11 -30 -6 0 -8 4 -5 8 2 4 1 14 -4
21 -10 18 -33 3 -26 -16 4 -10 2 -13 -8 -10 -7 3 -19 0 -25 -6 -8 -8 -11 -8
-11 1 0 6 6 15 13 19 26 17 39 41 26 49 -8 5 -9 3 -4 -6 6 -9 4 -11 -5 -5 -9
5 -11 4 -6 -4 5 -7 2 -10 -5 -9 -7 2 -14 -3 -15 -9 -3 -27 -5 -28 -14 -13 -7
11 -3 21 16 36 25 22 70 22 57 0 -4 -6 1 -5 11 3 9 8 15 20 12 28 -3 8 4 17
17 23 29 12 29 12 22 1z m-86 -22 c-7 -4 -17 -5 -22 -2 -5 3 -3 9 4 14 7 4 17
5 22 2 5 -3 3 -9 -4 -14z m391 -9 c0 -5 -2 -10 -4 -10 -3 0 -8 5 -11 10 -3 6
-1 10 4 10 6 0 11 -4 11 -10z m160 0 c0 -9 -23 -30 -33 -30 -5 0 -3 8 4 18 12
15 12 16 -1 6 -8 -5 -25 -9 -37 -8 -14 1 -20 -3 -16 -12 3 -8 9 -14 15 -14 5
0 6 5 2 11 -4 7 -1 10 6 7 22 -7 22 -25 1 -31 -25 -6 -45 16 -37 40 4 14 17
18 51 19 25 0 45 -2 45 -6z m-805 -20 c3 -5 1 -10 -4 -10 -6 0 -11 5 -11 10 0
6 2 10 4 10 3 0 8 -4 11 -10z m450 -10 c3 -11 11 -20 18 -20 6 0 -2 -13 -18
-30 -15 -16 -32 -27 -38 -23 -5 3 -3 10 4 15 11 8 11 9 -1 5 -8 -2 -15 -9 -15
-16 0 -7 -8 -18 -17 -25 -10 -7 -16 -15 -13 -17 2 -3 -5 -6 -16 -6 -20 -2 -20
-1 -3 18 13 15 15 22 6 31 -15 15 -15 28 0 28 6 0 20 7 30 17 10 9 18 11 18 5
0 -6 -6 -12 -12 -15 -7 -2 2 -4 19 -5 18 0 35 3 38 8 3 4 -5 6 -17 3 -22 -4
-23 -4 -4 11 11 9 14 16 8 16 -7 0 -12 5 -12 10 0 18 18 11 25 -10z m-259 -18
c-2 -9 -9 -18 -16 -20 -7 -3 -10 0 -6 6 3 6 1 14 -5 18 -8 5 -9 3 -4 -6 5 -9
4 -11 -3 -6 -7 4 -12 3 -12 -3 0 -5 3 -11 8 -14 4 -2 0 -2 -8 0 -8 2 -3 -6 13
-18 15 -11 27 -25 27 -31 0 -6 -9 -3 -20 7 -11 10 -20 14 -20 9 0 -5 -5 -1
-11 9 -8 13 -7 24 4 40 17 27 56 34 53 9z m89 -12 c3 -5 1 -10 -4 -10 -6 0
-11 5 -11 10 0 6 2 10 4 10 3 0 8 -4 11 -10z m-145 -63 c0 -5 -6 -5 -12 -1 -8
5 -7 0 2 -11 14 -17 13 -18 -3 -12 -13 5 -21 0 -29 -18 -10 -23 -20 -29 -40
-26 -5 0 -8 -4 -8 -11 0 -15 -15 0 -15 15 0 7 -9 11 -18 11 -10 -1 -16 0 -13
3 3 3 1 14 -4 24 -8 14 -4 22 20 39 17 12 30 20 31 18 10 -39 0 -53 -28 -35
-7 4 -10 1 -8 -10 1 -10 8 -17 15 -15 6 1 9 -3 5 -10 -4 -7 4 -1 17 13 13 14
32 25 40 23 16 -2 34 24 23 34 -3 3 -5 0 -5 -7 0 -7 -4 -9 -10 -6 -6 4 -5 11
3 20 10 11 14 9 24 -9 7 -11 12 -25 13 -29z m75 33 c3 -11 13 -20 21 -20 8 0
14 -4 14 -10 0 -5 -10 -9 -22 -7 -14 1 -22 -3 -20 -10 1 -7 -3 -13 -9 -13 -6
0 -8 8 -4 19 3 10 -1 24 -10 31 -13 11 -13 15 -3 21 20 13 26 11 33 -11z m64
-30 l32 -40 -37 -15 c-29 -12 -40 -13 -48 -4 -8 9 -6 10 7 6 9 -4 17 -2 17 3
0 14 -24 12 -39 -2 -10 -11 -15 -9 -27 7 -8 11 -19 20 -24 20 -4 0 -12 3 -16
8 -4 4 -2 7 5 7 7 0 9 6 6 13 -4 6 5 -1 18 -17 20 -23 28 -26 43 -17 13 7 14
10 5 11 -8 0 -11 3 -8 6 4 4 13 2 21 -5 11 -9 15 -8 20 6 4 11 1 22 -8 29 -9
6 -13 14 -9 17 9 9 6 12 42 -33z m44 7 c-3 -5 -9 -3 -14 4 -4 7 -5 17 -2 22 3
5 9 3 14 -4 4 -7 5 -17 2 -22z m-144 -60 c7 -10 19 -16 27 -13 8 3 14 2 14 -2
0 -4 -13 -13 -29 -19 -28 -10 -29 -9 -25 13 3 15 0 23 -7 22 -6 -2 -14 3 -16
10 -7 18 20 10 36 -11z m-749 -195 c0 -1 -9 2 -20 8 -11 6 -20 15 -20 20 0 6
9 2 20 -7 11 -10 20 -19 20 -21z m-44 6 c4 -7 3 -8 -4 -4 -7 4 -12 2 -12 -5 0
-7 -3 -10 -6 -6 -6 5 3 27 11 27 2 0 7 -5 11 -12z m2541 6 c-3 -3 -12 -4 -19
-1 -8 3 -5 6 6 6 11 1 17 -2 13 -5z m-2433 -22 c2 -4 -4 -8 -14 -8 -10 0 -16
4 -14 8 3 4 9 8 14 8 5 0 11 -4 14 -8z m2316 -7 c0 -8 -2 -15 -4 -15 -2 0 -6
7 -10 15 -3 8 -1 15 4 15 6 0 10 -7 10 -15z m60 0 c0 -8 -2 -15 -4 -15 -2 0
-6 7 -10 15 -3 8 -1 15 4 15 6 0 10 -7 10 -15z m-2420 -5 c0 -5 -7 -7 -15 -4
-8 4 -15 8 -15 10 0 2 7 4 15 4 8 0 15 -4 15 -10z m80 0 c0 -5 -4 -10 -10 -10
-5 0 -10 5 -10 10 0 6 5 10 10 10 6 0 10 -4 10 -10z m2248 -4 c14 5 13 2 -2
-10 -11 -9 -16 -16 -11 -16 5 0 4 -5 -3 -12 -9 -9 -15 -9 -24 1 -11 10 -10 11
4 6 14 -6 16 -2 13 22 -2 15 -2 23 1 16 3 -7 13 -10 22 -7z m72 -7 c0 -6 -4
-7 -10 -4 -5 3 -10 11 -10 16 0 6 5 7 10 4 6 -3 10 -11 10 -16z m-2440 1 c0
-5 -4 -10 -10 -10 -5 0 -10 5 -10 10 0 6 5 10 10 10 6 0 10 -4 10 -10z m2523
-7 c-4 -10 -2 -14 4 -10 6 4 16 0 22 -7 9 -10 9 -16 1 -21 -6 -4 -10 -3 -9 2
3 20 -2 27 -11 13 -7 -11 -10 -11 -10 -2 0 7 -4 11 -9 7 -5 -3 -13 0 -17 6 -4
7 -3 9 3 6 6 -4 13 0 17 8 3 8 8 15 10 15 3 0 2 -7 -1 -17z m-2562 -7 c5 3 9
1 9 -4 0 -21 -26 -19 -27 2 0 11 1 15 4 8 3 -6 9 -10 14 -6z m119 7 c-8 -3
-18 -11 -22 -17 -4 -6 -10 -7 -15 -3 -9 10 16 27 37 26 13 -1 13 -1 0 -6z
m2211 -8 c0 -6 7 -14 15 -18 8 -4 14 -13 14 -18 0 -12 -26 12 -27 25 -1 5 -7
13 -15 18 -11 8 -11 9 0 6 8 -2 13 -8 13 -13z m134 -5 c3 -6 -1 -7 -9 -4 -18
7 -21 14 -7 14 6 0 13 -4 16 -10z m35 0 c0 -5 -5 -10 -11 -10 -5 0 -7 5 -4 10
3 6 8 10 11 10 2 0 4 -4 4 -10z m-2370 -15 c7 -9 8 -15 2 -15 -5 0 -12 7 -16
15 -3 8 -4 15 -2 15 2 0 9 -7 16 -15z m-93 -15 c-1 -21 -10 -18 -13 5 -1 8 2
15 6 15 5 0 8 -9 7 -20z m2415 6 c-2 -5 2 -13 10 -18 10 -8 10 -9 -2 -5 -8 2
-14 10 -12 16 1 6 -8 11 -20 11 -20 0 -20 -1 -5 -18 10 -10 17 -22 17 -26 0
-5 -9 2 -19 15 -11 13 -17 28 -14 32 7 11 49 4 45 -7z m65 -1 c0 -8 -4 -12 -9
-9 -5 3 -6 10 -3 15 9 13 12 11 12 -6z m-2559 -9 c19 3 23 2 13 -5 -18 -12
-44 -7 -47 8 -1 6 0 7 2 2 3 -5 17 -7 32 -5z m122 4 c0 -5 -8 -10 -17 -10 -15
0 -16 2 -3 10 19 12 20 12 20 0z m34 -5 c3 -8 1 -15 -4 -15 -6 0 -10 7 -10 15
0 8 2 15 4 15 2 0 6 -7 10 -15z m2446 -27 c0 -5 -5 -8 -11 -8 -5 0 -8 4 -4 9
3 5 1 12 -5 16 -5 3 -10 11 -10 18 0 12 29 -23 30 -35z m76 25 c-2 -9 -9 -19
-17 -21 -11 -3 -11 -1 1 7 8 6 11 11 7 11 -5 0 -5 5 -2 10 9 15 14 12 11 -7z
m-266 -45 c0 -4 -5 -8 -12 -8 -6 0 -9 3 -5 6 3 4 0 13 -8 21 -8 8 -15 19 -15
25 0 6 9 1 20 -12 11 -13 20 -27 20 -32z m20 37 c4 3 13 -2 20 -9 12 -16 -2
-56 -20 -56 -6 0 -10 -5 -10 -11 0 -5 4 -7 10 -4 6 4 7 -1 3 -11 -5 -15 -7
-15 -15 0 -6 10 -5 23 1 34 6 9 11 13 11 7 0 -5 5 -3 10 5 13 20 13 33 -1 24
-11 -7 -29 13 -28 31 0 6 3 4 6 -3 2 -6 8 -10 13 -7z m-2370 -12 c0 -1 -9 -7
-19 -12 -14 -8 -20 -7 -24 2 -3 7 5 12 19 12 13 0 24 -1 24 -2z m24 -12 c-10
-10 -21 -16 -24 -14 -3 3 4 11 14 19 28 20 33 17 10 -5z m47 -32 c-11 -9 -17
-20 -13 -24 4 -5 1 -5 -5 -1 -17 9 -17 26 0 26 7 0 13 9 14 21 2 20 1 20 -16
5 -10 -9 -21 -16 -25 -16 -5 0 2 9 15 20 22 18 25 18 37 2 11 -14 10 -20 -7
-33z m-194 19 c-3 -8 -6 -5 -6 6 -1 11 2 17 5 13 3 -3 4 -12 1 -19z m2586 8
c4 -10 0 -12 -15 -8 -14 3 -19 1 -14 -6 7 -12 -32 -38 -42 -28 -3 3 0 6 7 6 7
0 9 4 6 10 -4 6 1 7 11 3 11 -4 15 -3 10 5 -5 8 14 28 30 32 1 0 4 -6 7 -14z
m35 -15 c-7 -9 -13 -17 -14 -19 -1 -2 -1 8 0 21 0 15 6 23 14 20 10 -4 10 -9
0 -22z m-2652 -9 c-17 -16 -18 -16 -5 5 7 12 15 20 18 17 3 -2 -3 -12 -13 -22z
m2764 24 c0 -2 -8 -10 -17 -17 -16 -13 -17 -12 -4 4 13 16 21 21 21 13z
m-2630 -36 c6 -11 8 -20 6 -20 -3 0 -10 9 -16 20 -6 11 -8 20 -6 20 3 0 10 -9
16 -20z m128 -14 c-10 -7 -15 -16 -11 -20 4 -4 -1 -4 -12 0 -18 7 -18 6 -6 -9
7 -9 9 -17 3 -17 -17 0 -23 30 -7 36 8 4 12 10 9 15 -3 5 2 6 11 3 11 -5 14
-2 9 12 -6 16 -5 17 7 6 12 -11 11 -15 -3 -26z m2517 24 c-3 -5 -12 -10 -18
-10 -7 0 -6 4 3 10 19 12 23 12 15 0z m-2748 -15 c0 -8 -3 -13 -5 -10 -3 3
-12 -1 -21 -7 -10 -8 -9 -4 3 10 23 26 23 26 23 7z m73 3 c8 2 12 2 9 -2 -13
-14 -48 -14 -53 0 -4 11 -1 12 12 6 9 -5 24 -7 32 -4z m2607 -2 c0 -8 -8 -11
-21 -8 -19 5 -19 6 0 13 10 4 19 8 20 8 0 1 1 -5 1 -13z m-102 -6 c-27 -12
-43 -12 -25 0 8 5 22 9 30 9 10 0 8 -3 -5 -9z m139 -6 c3 -8 2 -12 -4 -9 -6 3
-10 10 -10 16 0 14 7 11 14 -7z m65 13 c-2 -1 -13 -9 -24 -17 -19 -14 -19 -14
-6 3 7 9 18 17 24 17 6 0 8 -1 6 -3z m-164 -17 c3 -5 1 -10 -4 -10 -6 0 -11 5
-11 10 0 6 2 10 4 10 3 0 8 -4 11 -10z m-2511 -23 c4 4 4 -1 0 -12 -5 -11 -9
-14 -12 -7 -2 7 -8 10 -12 7 -5 -3 -12 0 -16 6 -5 8 -3 9 6 4 10 -6 12 -3 7
11 -7 18 -6 18 6 2 8 -10 17 -15 21 -11z m36 13 c0 -5 -4 -10 -10 -10 -5 0
-10 5 -10 10 0 6 5 10 10 10 6 0 10 -4 10 -10z m120 1 c0 -5 -7 -12 -16 -15
-8 -3 -13 -10 -9 -15 5 -10 -25 -31 -42 -31 -4 1 2 6 14 13 12 7 23 17 24 22
4 22 12 35 20 35 5 0 9 -4 9 -9z m2279 -25 c0 -19 -1 -19 -10 4 -8 20 -12 22
-19 10 -6 -9 -6 -16 0 -18 6 -2 10 -8 10 -14 0 -6 -6 -6 -15 2 -11 9 -12 17
-5 31 13 24 40 14 39 -15z m-2379 4 c-8 -5 -19 -10 -25 -10 -5 0 -3 5 5 10 8
5 20 10 25 10 6 0 3 -5 -5 -10z m2440 0 c0 -5 -4 -10 -10 -10 -5 0 -10 5 -10
10 0 6 5 10 10 10 6 0 10 -4 10 -10z m54 -5 c11 -8 15 -15 9 -15 -7 0 -15 5
-18 10 -4 6 -11 8 -16 5 -5 -4 -9 -1 -9 4 0 15 11 13 34 -4z m89 2 c-2 -4 -16
-5 -30 -3 -38 7 -38 14 1 12 19 0 32 -4 29 -9z m-164 -27 c11 -24 11 -24 -3
-6 -9 11 -16 24 -16 30 0 12 5 7 19 -24z m-2403 -6 c-7 -38 -14 -40 -12 -5 0
17 4 31 9 31 4 0 5 -12 3 -26z m2448 0 c9 -24 2 -26 -12 -4 -7 11 -8 20 -3 20
5 0 12 -7 15 -16z m90 -14 c-6 -6 -10 -3 -10 10 0 13 4 16 10 10 7 -7 7 -13 0
-20z m-2654 10 c0 -5 -2 -10 -4 -10 -3 0 -8 5 -11 10 -3 6 -1 10 4 10 6 0 11
-4 11 -10z m87 -3 c2 -3 -8 -4 -22 -4 -14 0 -25 3 -25 8 0 7 38 4 47 -4z
m2348 -9 c-4 -37 -4 -38 -16 -38 -5 0 -7 5 -4 10 3 6 1 10 -4 10 -6 0 -11 5
-11 11 0 8 6 7 16 -2 15 -12 16 -11 10 9 -4 12 -3 22 2 22 5 0 8 -10 7 -22z
m55 12 c-8 -5 -22 -9 -30 -9 -10 0 -8 3 5 9 27 12 43 12 25 0z m-2330 -20 c-8
-5 -18 -6 -22 -4 -4 3 -8 1 -8 -5 0 -5 6 -12 13 -14 9 -4 9 -6 0 -6 -14 -1
-26 16 -19 27 2 4 15 8 28 9 17 2 19 0 8 -7z m2345 2 c-5 -4 -11 -15 -13 -24
-2 -13 2 -16 15 -12 15 5 15 4 3 -4 -24 -18 -34 2 -21 46 1 1 7 2 14 2 7 0 8
-3 2 -8z m-2444 -25 c-10 -9 -11 -8 -5 6 3 10 9 15 12 12 3 -3 0 -11 -7 -18z
m155 -4 c-6 -6 -36 9 -36 18 0 5 9 4 20 -3 10 -7 18 -14 16 -15z m-118 -8 c-3
-3 -9 2 -12 12 -6 14 -5 15 5 6 7 -7 10 -15 7 -18z m2362 4 c-7 -11 -14 -19
-16 -16 -7 7 7 37 17 37 6 0 5 -9 -1 -21z m113 7 c4 -11 1 -13 -10 -9 -12 5
-14 3 -8 -7 5 -9 4 -11 -4 -6 -9 6 -9 11 0 22 14 17 16 17 22 0z m-2538 -6
c-3 -5 -1 -10 6 -10 7 0 10 -3 6 -6 -9 -9 -28 6 -22 17 4 5 8 9 11 9 3 0 2 -4
-1 -10z m36 -23 c-10 -9 -11 -8 -5 6 3 10 9 15 12 12 3 -3 0 -11 -7 -18z m46
4 c0 -11 -5 -17 -9 -15 -4 3 -8 0 -8 -7 0 -7 -3 -10 -6 -7 -4 5 16 48 23 48 1
0 1 -9 0 -19z m50 5 c-15 -12 -16 -15 -2 -26 9 -7 13 -15 11 -17 -2 -3 -13 4
-24 15 -17 17 -17 20 -3 30 23 16 39 14 18 -2z m2307 -21 c-4 -8 -8 -15 -10
-15 -2 0 -4 7 -4 15 0 8 4 15 10 15 5 0 7 -7 4 -15z m-39 -14 c-3 -6 -11 -11
-16 -11 -5 0 -4 6 3 14 14 16 24 13 13 -3z m79 10 c3 -5 -1 -11 -9 -15 -8 -3
-17 0 -21 6 -4 7 -3 8 4 4 7 -4 12 -2 12 3 0 13 7 14 14 2z m-2378 -8 c-3 -4
4 -13 16 -20 l23 -14 -24 7 c-15 4 -21 2 -17 -4 4 -6 0 -14 -8 -19 -8 -4 -15
-12 -15 -18 0 -5 -5 -11 -13 -13 -9 -2 -8 0 2 7 8 6 11 11 5 11 -5 0 -3 6 5
13 9 7 15 19 15 27 -1 18 4 30 12 30 4 0 3 -3 -1 -7z m2424 -3 c0 -5 -7 -7
-15 -4 -8 4 -15 8 -15 10 0 2 7 4 15 4 8 0 15 -4 15 -10z m-2331 -33 l28 -23
-23 -17 c-16 -12 -25 -14 -30 -5 -4 6 1 17 10 24 16 11 15 13 -6 28 -12 9 -19
16 -14 16 4 0 20 -10 35 -23z m2231 19 c0 -2 -7 -7 -16 -10 -8 -3 -12 -2 -9 4
6 10 25 14 25 6z m7 -21 c-10 -7 -18 -17 -18 -22 1 -13 -22 -9 -25 5 -1 7 0 8
3 2 5 -12 24 -14 21 -2 -4 10 25 41 32 35 3 -2 -3 -11 -13 -18z m-2267 -5 c0
-5 -4 -10 -10 -10 -5 0 -10 5 -10 10 0 6 5 10 10 10 6 0 10 -4 10 -10z m2197
-10 c3 -11 9 -20 14 -20 5 0 9 -5 9 -11 0 -8 -5 -8 -15 1 -8 7 -15 18 -15 25
0 8 -6 16 -12 18 -10 4 -10 6 0 6 8 1 16 -8 19 -19z m-51 -12 c-15 -8 -16 -12
-5 -19 9 -6 10 -9 2 -9 -6 0 -14 4 -18 9 -6 11 25 45 34 36 3 -4 -3 -11 -13
-17z m-2179 6 c-3 -3 -12 -4 -19 -1 -8 3 -5 6 6 6 11 1 17 -2 13 -5z m2209
-20 c-4 -9 -9 -15 -11 -12 -3 3 -3 13 1 22 4 9 9 15 11 12 3 -3 3 -13 -1 -22z
m124 22 c0 -3 -4 -8 -10 -11 -5 -3 -10 -1 -10 4 0 6 5 11 10 11 6 0 10 -2 10
-4z m16 -15 c-4 -5 0 -12 6 -14 8 -3 6 -6 -4 -6 -18 -1 -24 10 -11 22 9 10 15
8 9 -2z m-2338 -22 c2 -8 0 -10 -5 -4 -4 6 -15 11 -25 13 -12 2 -15 -3 -11
-17 6 -23 -8 -33 -27 -19 -12 8 -11 9 3 4 13 -4 18 -1 16 12 -2 29 0 32 23 29
12 -2 24 -10 26 -18z m80 5 c-19 -10 -26 -20 -22 -32 5 -14 4 -14 -5 -2 -12
17 13 50 38 50 10 -1 6 -6 -11 -16z m2236 -9 c3 -8 1 -15 -4 -15 -6 0 -10 7
-10 15 0 8 2 15 4 15 2 0 6 -7 10 -15z m-2394 1 c0 -2 -7 -7 -16 -10 -8 -3
-12 -2 -9 4 6 10 25 14 25 6z m116 -50 c-1 -10 -9 -22 -17 -27 -12 -8 -12 -10
0 -18 8 -5 16 -20 17 -33 2 -13 0 -17 -2 -11 -3 7 -6 16 -6 20 -1 5 -8 14 -17
21 -14 11 -14 13 -1 25 8 6 16 20 18 30 3 15 0 16 -17 5 -11 -6 -19 -16 -18
-22 1 -5 -7 -11 -18 -13 -16 -2 -16 -1 -4 5 9 4 15 15 13 24 -1 10 3 21 8 25
7 4 8 1 3 -7 -5 -8 -3 -11 6 -8 8 3 13 14 11 24 -3 17 -2 17 12 -2 8 -11 14
-28 12 -38z m2189 45 c3 -5 0 -13 -6 -17 -8 -4 -7 -9 2 -15 9 -5 10 -9 3 -9
-7 0 -22 9 -35 21 -13 11 -19 18 -12 15 6 -4 14 -2 18 4 8 13 22 13 30 1z m33
-11 c-7 -10 -14 -18 -15 -16 -6 6 9 36 18 36 5 0 4 -9 -3 -20z m52 -17 c0 -3
-9 -3 -20 0 -15 4 -20 0 -21 -16 0 -12 -3 -16 -6 -9 -9 23 5 41 26 35 12 -3
21 -8 21 -10z m33 0 c-5 -12 -3 -14 7 -8 8 5 11 4 6 -3 -4 -6 -13 -9 -22 -5
-11 4 -12 9 -3 19 15 19 20 18 12 -3z m-2459 -9 c3 -8 2 -12 -4 -9 -6 3 -10
10 -10 16 0 14 7 11 14 -7z m41 -2 c-3 -3 -11 0 -18 7 -9 10 -8 11 6 5 10 -3
15 -9 12 -12z m2253 -7 c-3 -3 -9 2 -12 12 -6 14 -5 15 5 6 7 -7 10 -15 7 -18z
m-2213 5 c-3 -5 -12 -10 -18 -10 -7 0 -6 4 3 10 19 12 23 12 15 0z m2270 -30
c0 -7 -6 -14 -13 -16 -7 -1 -8 0 -2 3 17 8 11 19 -10 20 -13 1 -18 -2 -14 -9
4 -7 2 -8 -5 -4 -6 4 -9 12 -6 17 9 13 50 4 50 -11z m65 16 c0 -3 -4 -8 -10
-11 -5 -3 -10 -1 -10 4 0 6 5 11 10 11 6 0 10 -2 10 -4z m75 -5 c3 -5 2 -12
-3 -15 -5 -3 -9 1 -9 9 0 17 3 19 12 6z m-2450 -21 c3 -6 -1 -7 -9 -4 -18 7
-21 14 -7 14 6 0 13 -4 16 -10z m2348 -10 c3 -11 1 -18 -4 -14 -5 3 -9 12 -9
20 0 20 7 17 13 -6z m-2273 -16 c0 -2 -9 0 -20 6 -11 6 -20 13 -20 16 0 2 9 0
20 -6 11 -6 20 -13 20 -16z m2355 16 c4 -6 -1 -7 -11 -3 -13 5 -15 3 -9 -7 5
-9 4 -11 -4 -6 -6 4 -9 12 -6 17 8 12 22 12 30 -1z m-2455 -25 c-4 -11 -6 -28
-4 -38 1 -11 0 -16 -3 -13 -4 3 -13 0 -22 -7 -14 -11 -15 -10 -1 7 18 22 22
47 10 61 -6 7 -2 11 9 11 15 0 17 -5 11 -21z m2370 -19 c0 -6 -7 -1 -15 10 -8
10 -15 23 -15 28 0 6 7 1 15 -10 8 -10 15 -23 15 -28z m-2326 18 c3 -8 2 -12
-4 -9 -6 3 -10 10 -10 16 0 14 7 11 14 -7z m2443 -6 c-3 -8 -6 -5 -6 6 -1 11
2 17 5 13 3 -3 4 -12 1 -19z m-2397 -8 c6 -11 8 -20 6 -20 -3 0 -10 9 -16 20
-6 11 -8 20 -6 20 3 0 10 -9 16 -20z m2240 12 c0 -4 -9 -8 -19 -8 -11 0 -17 4
-15 8 3 4 12 8 20 8 8 0 14 -4 14 -8z m61 -19 c-12 -20 -14 -14 -5 12 4 9 9
14 11 11 3 -2 0 -13 -6 -23z m-2273 -8 c-3 -3 -9 2 -12 12 -6 14 -5 15 5 6 7
-7 10 -15 7 -18z m2240 -7 c12 -14 10 -16 -13 -13 -15 1 -32 8 -38 15 -10 10
-8 10 10 1 29 -15 33 -14 26 7 -7 18 -5 17 15 -10z m65 -9 c-8 -8 -13 -7 -18
2 -6 8 -4 10 5 4 10 -6 12 -4 6 11 -6 15 -5 17 5 7 9 -10 10 -16 2 -24z
m-2353 -9 c-6 -11 -12 -20 -14 -20 -2 0 -2 9 1 20 3 11 9 20 15 20 5 0 4 -9
-2 -20z m63 5 c-3 -9 -8 -14 -10 -11 -3 3 -2 9 2 15 9 16 15 13 8 -4z m2187
-15 c0 -5 -5 -10 -11 -10 -5 0 -7 5 -4 10 3 6 8 10 11 10 2 0 4 -4 4 -10z
m125 0 c-4 -6 -1 -19 6 -28 10 -13 8 -12 -9 2 -17 15 -19 22 -10 28 17 10 20
10 13 -2z m45 5 c0 -2 -6 -8 -13 -14 -10 -8 -14 -7 -14 2 0 8 6 14 14 14 7 0
13 -1 13 -2z m-2490 -8 c0 -2 -8 -11 -18 -20 -15 -14 -19 -15 -19 -2 0 8 4 12
8 9 4 -2 10 0 14 6 6 10 15 14 15 7z m37 -3 c-3 -3 -12 -4 -19 -1 -8 3 -5 6 6
6 11 1 17 -2 13 -5z m56 -18 c4 -10 0 -12 -15 -8 -15 4 -17 7 -6 13 17 11 15
11 21 -5z m2257 -5 c7 -15 7 -19 -5 -17 -8 1 -18 6 -22 11 -5 4 -2 5 6 0 11
-6 13 -4 8 8 -9 23 0 21 13 -2z m46 2 c-2 -9 -8 -18 -15 -19 -6 -1 -7 0 -2 2
6 3 7 12 4 20 -3 8 -1 14 5 14 6 0 9 -8 8 -17z m-2395 -16 c-6 -8 -9 -16 -6
-19 3 -3 -3 -11 -12 -19 -16 -13 -17 -12 -4 4 7 9 10 17 6 17 -4 0 -2 7 5 15
7 8 15 15 17 15 3 0 0 -6 -6 -13z m33 4 c3 -5 -2 -15 -12 -22 -15 -12 -16 -12
-5 2 7 9 10 19 6 22 -3 4 -4 7 0 7 3 0 8 -4 11 -9z m79 -16 c-3 -9 -8 -14 -10
-11 -3 3 -2 9 2 15 9 16 15 13 8 -4z m-253 -1 c0 -8 -19 -13 -24 -6 -3 5 1 9
9 9 8 0 15 -2 15 -3z m2577 -1 c-4 -3 -1 -13 6 -22 11 -14 10 -14 -5 -2 -21
15 -23 31 -6 31 6 0 8 -3 5 -7z m59 -5 c4 -7 4 -10 -1 -6 -4 4 -15 2 -24 -5
-14 -11 -14 -10 -2 6 16 20 18 21 27 5z m-2421 -26 c-3 -3 -11 0 -18 7 -9 10
-8 11 6 5 10 -3 15 -9 12 -12z m2287 11 c-6 -3 -10 -8 -7 -13 3 -4 -2 -10 -10
-14 -8 -3 -17 0 -21 6 -5 7 -2 8 6 3 9 -6 12 -4 8 6 -4 10 1 15 16 16 11 0 15
-1 8 -4z m33 -2 c3 -5 2 -12 -3 -15 -5 -3 -9 1 -9 9 0 17 3 19 12 6z m-2475
-5 c0 -2 -8 -10 -17 -17 -16 -13 -17 -12 -4 4 13 16 21 21 21 13z m100 0 c0
-2 -8 -10 -17 -17 -16 -13 -17 -12 -4 4 13 16 21 21 21 13z m20 -16 c0 -5 -5
-10 -11 -10 -5 0 -7 5 -4 10 3 6 8 10 11 10 2 0 4 -4 4 -10z m40 -4 c0 -2 -8
-10 -17 -17 -16 -13 -17 -12 -4 4 13 16 21 21 21 13z m2360 -20 c-7 -7 -13 -7
-20 0 -6 6 -3 10 10 10 13 0 16 -4 10 -10z m37 -1 c0 -8 -4 -12 -9 -9 -5 3 -6
10 -3 15 9 13 12 11 12 -6z m163 5 c0 -5 -2 -10 -4 -10 -3 0 -8 5 -11 10 -3 6
-1 10 4 10 6 0 11 -4 11 -10z m-2525 -9 c3 -5 2 -12 -3 -15 -5 -3 -9 1 -9 9 0
17 3 19 12 6z m-158 -16 c0 -8 -4 -12 -9 -9 -5 3 -6 10 -3 15 9 13 12 11 12
-6z m2443 3 c0 -6 -3 -8 -7 -5 -3 4 -13 1 -22 -6 -14 -11 -14 -10 -2 6 15 20
31 22 31 5z m-2319 -15 c13 -16 12 -17 -3 -4 -10 7 -18 15 -18 17 0 8 8 3 21
-13z m2459 3 c0 -3 -4 -8 -10 -11 -5 -3 -10 -1 -10 4 0 6 5 11 10 11 6 0 10
-2 10 -4z m-2461 -33 c2 -1 -5 -1 -16 0 -11 0 -20 7 -20 14 0 10 4 10 16 1 9
-7 18 -13 20 -15z m2321 24 c0 -2 -8 -11 -18 -20 -15 -14 -19 -15 -19 -2 0 8
4 12 8 9 4 -2 10 0 14 6 6 10 15 14 15 7z m-2480 -17 c0 -5 -5 -10 -11 -10 -5
0 -7 5 -4 10 3 6 8 10 11 10 2 0 4 -4 4 -10z m2656 -16 c1 -9 0 -13 -4 -10 -3
4 -7 14 -8 22 -1 9 0 13 4 10 3 -4 7 -14 8 -22z m44 16 c0 -5 -5 -10 -11 -10
-5 0 -7 5 -4 10 3 6 8 10 11 10 2 0 4 -4 4 -10z m-210 -13 c0 -2 -10 -13 -23
-25 -18 -17 -24 -19 -24 -8 0 8 4 13 8 11 3 -3 12 2 19 10 12 14 20 19 20 12z
m130 -1 c0 -3 -4 -8 -10 -11 -5 -3 -10 -1 -10 4 0 6 5 11 10 11 6 0 10 -2 10
-4z m-2665 -26 c3 -5 1 -10 -4 -10 -6 0 -11 5 -11 10 0 6 2 10 4 10 3 0 8 -4
11 -10z m45 0 c0 -5 -2 -10 -4 -10 -3 0 -8 5 -11 10 -3 6 -1 10 4 10 6 0 11
-4 11 -10z m90 6 c0 -2 -8 -10 -17 -17 -16 -13 -17 -12 -4 4 13 16 21 21 21
13z m74 -24 c2 -4 -4 -8 -14 -8 -10 0 -16 4 -14 8 3 4 9 8 14 8 5 0 11 -4 14
-8z m-166 -32 c-7 -10 -14 -17 -17 -15 -4 4 18 35 25 35 2 0 -1 -9 -8 -20z
m2582 -10 c0 -5 -2 -10 -4 -10 -3 0 -8 5 -11 10 -3 6 -1 10 4 10 6 0 11 -4 11
-10z m-163 -15 c0 -8 -4 -12 -9 -9 -5 3 -6 10 -3 15 9 13 12 11 12 -6z m-2237
-1 c0 -8 -19 -13 -24 -6 -3 5 1 9 9 9 8 0 15 -2 15 -3z m-124 -29 c-1 -8 -5
-17 -8 -21 -5 -4 -4 16 1 34 3 9 9 -1 7 -13z m2520 3 c3 -4 -1 -5 -10 -4 -8 1
-18 5 -22 8 -3 4 1 5 10 4 8 -1 18 -5 22 -8z m-2436 -38 c0 -5 -2 -10 -4 -10
-3 0 -8 5 -11 10 -3 6 -1 10 4 10 6 0 11 -4 11 -10z m2315 -40 c3 -5 1 -10 -4
-10 -6 0 -11 5 -11 10 0 6 2 10 4 10 3 0 8 -4 11 -10z m-2321 -42 c-3 -4 -11
-5 -19 -1 -21 7 -19 12 4 10 11 0 18 -5 15 -9z m36 -212 c0 -2 -8 -10 -17 -17
-16 -13 -17 -12 -4 4 13 16 21 21 21 13z m943 -1115 c10 -1 -16 -41 -27 -41
-6 0 -5 5 2 12 20 20 13 32 -7 14 -19 -17 -19 -17 -16 1 2 10 4 19 4 20 1 1 9
0 19 -2 9 -2 20 -4 25 -4z m-273 -7 c0 -8 -19 -13 -24 -6 -3 5 1 9 9 9 8 0 15
-2 15 -3z m40 2 c0 -3 -4 -8 -10 -11 -5 -3 -10 -1 -10 4 0 6 5 11 10 11 6 0
10 -2 10 -4z m193 -51 c4 -8 1 -17 -5 -21 -6 -4 -8 -3 -4 4 3 6 2 13 -4 17 -5
3 -10 1 -10 -6 0 -7 -3 -10 -6 -6 -7 7 4 27 16 27 4 0 10 -7 13 -15z m-127
-32 c-3 10 -2 15 4 12 12 -8 7 -42 -8 -57 -9 -9 -15 -9 -24 0 -9 9 -7 13 5 18
9 3 15 10 12 15 -3 4 -12 6 -20 2 -16 -6 -18 -2 -9 21 5 13 9 12 26 -7 16 -17
19 -18 14 -4z m167 -16 c12 -4 17 -1 17 11 0 11 5 7 15 -12 17 -32 13 -45 -8
-28 -8 7 -18 8 -22 4 -5 -4 -5 -2 -2 4 4 7 -2 14 -13 17 -11 3 -20 11 -20 19
0 8 3 9 8 2 4 -6 15 -13 25 -17z m55 -2 c-3 -3 -9 2 -12 12 -6 14 -5 15 5 6 7
-7 10 -15 7 -18z m412 -25 c0 -5 -2 -10 -4 -10 -3 0 -8 5 -11 10 -3 6 -1 10 4
10 6 0 11 -4 11 -10z"/>
<path d="M1566 3218 c3 -4 0 -8 -5 -8 -6 0 -10 -3 -10 -7 3 -20 -2 -34 -10
-28 -5 3 -12 1 -15 -4 -4 -5 -2 -12 3 -15 5 -4 12 -2 16 4 4 6 11 8 16 4 5 -3
6 -10 3 -16 -4 -7 -2 -8 5 -4 9 6 9 11 1 21 -11 13 -4 45 11 45 5 0 9 4 9 8 0
5 -7 9 -15 9 -8 0 -12 -4 -9 -9z"/>
<path d="M1686 3173 c-6 -14 -5 -15 5 -6 7 7 10 15 7 18 -3 3 -9 -2 -12 -12z"/>
<path d="M1746 3151 c-4 -5 -2 -12 3 -15 5 -4 12 -2 15 3 4 5 2 12 -3 15 -5 4
-12 2 -15 -3z"/>
<path d="M1586 3118 c3 -5 9 -7 12 -4 3 3 12 0 21 -6 13 -10 14 -10 4 2 -15
16 -46 23 -37 8z"/>
<path d="M1712 2954 c-1 -20 1 -35 4 -32 8 9 13 68 5 68 -4 0 -8 -16 -9 -36z"/>
<path d="M1940 2940 c-12 -7 -10 -9 8 -7 12 0 22 5 22 9 0 11 -12 10 -30 -2z"/>
<path d="M1680 2920 c-13 -8 -13 -11 -1 -22 8 -8 11 -8 7 -1 -3 6 0 13 6 16 7
2 11 7 8 10 -3 3 -12 2 -20 -3z"/>
<path d="M1790 2886 c0 -2 7 -6 15 -10 8 -3 15 -1 15 4 0 6 -7 10 -15 10 -8 0
-15 -2 -15 -4z"/>
<path d="M1826 2863 c-4 -9 -4 -18 -1 -21 3 -3 5 0 5 8 0 10 3 10 15 0 22 -18
25 -8 4 12 -16 15 -18 15 -23 1z"/>
<path d="M1855 2870 c3 -5 8 -10 11 -10 2 0 4 5 4 10 0 6 -5 10 -11 10 -5 0
-7 -4 -4 -10z"/>
<path d="M1545 2861 c-3 -6 3 -9 14 -8 11 0 17 5 15 9 -7 11 -22 10 -29 -1z"/>
<path d="M1780 2859 c0 -5 5 -7 10 -4 6 3 10 8 10 11 0 2 -4 4 -10 4 -5 0 -10
-5 -10 -11z"/>
<path d="M1880 2861 c0 -11 29 -35 35 -29 2 2 -4 12 -15 21 -11 9 -20 13 -20
8z"/>
<path d="M1980 2822 c0 -5 7 -9 15 -9 8 0 15 4 15 9 0 4 -7 8 -15 8 -8 0 -15
-4 -15 -8z"/>
<path d="M2055 2790 c3 -5 8 -10 11 -10 2 0 4 5 4 10 0 6 -5 10 -11 10 -5 0
-7 -4 -4 -10z"/>
<path d="M2199 2994 c-11 -14 -11 -18 -1 -22 8 -2 3 -11 -14 -24 -22 -18 -28
-19 -36 -7 -8 11 -9 10 -4 -3 3 -10 1 -20 -4 -23 -6 -4 -10 -1 -10 6 0 8 -4 8
-15 -1 -13 -10 -19 -9 -38 6 l-22 19 19 -22 c11 -13 14 -23 9 -23 -15 0 -34
25 -36 49 0 11 -5 18 -9 15 -4 -3 -4 -12 -1 -22 5 -13 4 -15 -8 -7 -8 6 -1 -2
16 -17 16 -15 37 -25 46 -22 9 2 16 -2 16 -10 0 -17 -37 -17 -50 -1 -5 6 -6 2
-3 -9 4 -10 1 -26 -6 -35 -10 -13 -10 -14 2 -4 11 10 16 9 27 -5 10 -13 12
-14 8 -1 -4 12 1 15 25 15 22 0 29 -4 28 -15 -2 -11 3 -15 16 -13 18 3 19 2 5
-15 -13 -16 -13 -17 4 -4 20 15 23 2 5 -19 -11 -12 -10 -12 3 -2 14 11 17 9
17 -14 0 -14 7 -33 16 -42 10 -10 16 -12 15 -7 -4 23 2 31 24 32 22 2 22 2 2
-14 -16 -12 -16 -14 -3 -10 13 5 17 1 15 -15 -1 -13 4 -22 15 -23 12 -2 15 2
11 13 -6 16 -5 16 13 1 10 -9 27 -15 37 -14 12 2 17 -1 14 -10 -4 -9 1 -11 14
-8 17 5 24 -5 20 -29 0 -4 7 -4 16 -1 12 5 14 3 8 -8 -4 -8 -4 -11 0 -6 5 4
18 -2 30 -13 l21 -20 -1 32 c-1 37 -12 61 -25 53 -12 -7 -41 36 -33 48 3 6 1
7 -5 3 -6 -3 -14 -1 -17 5 -4 5 -13 8 -20 5 -14 -5 -28 18 -17 29 4 3 7 21 7
40 1 27 -1 32 -11 24 -10 -8 -23 -3 -49 17 -31 23 -34 29 -22 43 12 14 13 23
8 47 0 4 -8 1 -16 -6 -8 -7 -15 -9 -15 -5 0 4 -6 3 -13 -3 -12 -10 -37 -3 -40
11 -1 4 8 13 20 22 20 14 25 36 11 50 -3 3 -11 -2 -19 -11z m18 -9 c0 -8 -4
-12 -9 -9 -5 3 -6 10 -3 15 9 13 12 11 12 -6z m-31 -53 c-3 -5 3 -16 14 -24
17 -15 19 -15 24 -1 4 9 9 13 13 10 3 -4 12 -2 19 4 16 13 13 -13 -4 -34 -11
-12 -6 -20 28 -47 22 -17 44 -29 48 -26 10 6 10 -40 -1 -50 -10 -11 12 -44 27
-38 7 3 25 -11 40 -30 15 -20 32 -35 38 -33 6 1 12 -11 13 -26 l2 -28 -26 23
c-34 30 -41 40 -34 51 3 4 -3 7 -13 5 -11 -2 -18 2 -17 10 2 6 -2 12 -7 12 -5
0 -10 -6 -10 -12 0 -9 -3 -8 -9 2 -6 8 -7 18 -4 24 3 5 1 6 -5 2 -8 -5 -10 -1
-6 11 5 15 4 15 -4 3 -8 -10 -8 -18 0 -27 6 -8 9 -16 6 -18 -12 -12 -29 24
-20 42 5 10 8 26 7 36 -2 9 1 15 6 12 5 -4 6 1 3 9 -3 9 -10 13 -15 10 -5 -3
-12 2 -15 11 -6 13 -8 14 -15 3 -7 -10 -9 -10 -9 2 0 12 -2 12 -9 1 -6 -9 -11
-10 -15 -2 -4 6 -2 11 5 11 8 0 8 4 -1 15 -7 8 -16 13 -20 10 -4 -3 -10 2 -13
10 -4 9 -1 12 7 9 8 -3 17 0 22 7 5 9 2 10 -9 6 -9 -3 -23 1 -32 9 -11 12 -15
12 -15 2 0 -10 -3 -9 -10 2 -9 13 -11 13 -20 0 -5 -8 -10 -10 -10 -4 0 6 10
19 23 27 26 18 30 20 23 9z m-53 -36 c3 -7 16 -12 30 -11 18 2 28 -4 36 -22 6
-13 16 -21 21 -18 11 7 14 -8 4 -18 -9 -9 -35 4 -28 14 3 5 -3 6 -13 2 -16 -6
-17 -5 -3 13 14 18 14 18 -4 4 -18 -14 -19 -13 -12 5 6 16 5 18 -6 7 -10 -10
-8 -17 13 -36 13 -12 32 -22 42 -20 16 2 21 -7 18 -33 -1 -7 3 -13 9 -13 5 0
9 3 9 8 -3 20 3 30 17 28 34 -5 38 -40 11 -92 l-15 -28 3 40 c2 21 4 39 5 39
1 0 3 8 5 18 2 9 -1 15 -6 11 -5 -3 -7 -9 -5 -13 3 -4 -4 -12 -14 -19 -15 -9
-19 -8 -24 4 -3 9 -4 19 -1 23 2 4 -2 8 -10 8 -10 0 -11 -5 -4 -19 7 -12 6
-24 -1 -36 -11 -16 -11 -16 -6 1 3 9 1 17 -5 17 -6 0 -7 5 -4 10 10 17 -24 62
-41 56 -8 -3 -12 -2 -9 3 7 12 -15 62 -25 56 -4 -2 -7 2 -7 10 0 19 13 19 20
1z m-39 -34 c3 -5 -1 -9 -9 -9 -8 0 -15 4 -15 9 0 4 4 8 9 8 6 0 12 -4 15 -8z
m36 -2 c0 -5 -2 -10 -4 -10 -3 0 -8 5 -11 10 -3 6 -1 10 4 10 6 0 11 -4 11
-10z"/>
<path d="M2236 2898 c3 -5 10 -6 15 -3 13 9 11 12 -6 12 -8 0 -12 -4 -9 -9z"/>
<path d="M2245 2850 c10 -11 20 -20 23 -20 3 0 -3 9 -13 20 -10 11 -20 20 -23
20 -3 0 3 -9 13 -20z"/>
<path d="M2363 2705 c0 -8 4 -12 9 -9 5 3 6 10 3 15 -9 13 -12 11 -12 -6z"/>
<path d="M2409 2657 c29 -32 28 -31 28 -12 0 8 -3 13 -5 10 -3 -3 -15 3 -26
12 -15 13 -14 10 3 -10z"/>
<path d="M1153 2977 c0 -8 6 -14 14 -14 9 0 10 4 2 14 -6 7 -12 13 -14 13 -1
0 -2 -6 -2 -13z"/>
<path d="M999 2873 c-7 -10 -9 -15 -5 -11 5 4 15 0 23 -10 13 -15 13 -15 4 4
-6 12 -7 24 -4 28 3 3 4 6 1 6 -3 0 -12 -8 -19 -17z"/>
<path d="M981 2797 c-8 -10 -7 -14 2 -14 8 0 14 6 14 14 0 7 -1 13 -2 13 -2 0
-8 -6 -14 -13z"/>
<path d="M951 2743 c-8 -14 -10 -15 -11 -3 0 12 -2 12 -9 2 -4 -8 -11 -13 -15
-13 -3 1 -6 -2 -6 -6 -1 -23 52 -1 58 25 3 17 -5 15 -17 -5z"/>
<path d="M996 2733 c-6 -14 -5 -15 5 -6 7 7 10 15 7 18 -3 3 -9 -2 -12 -12z"/>
<path d="M1083 2719 c9 -6 14 -15 11 -21 -4 -7 -2 -8 5 -4 14 9 -3 36 -23 36
-6 0 -3 -5 7 -11z"/>
<path d="M956 2701 c-4 -5 -2 -12 3 -15 5 -4 12 -2 15 3 4 5 2 12 -3 15 -5 4
-12 2 -15 -3z"/>
<path d="M891 2626 c-10 -11 -9 -14 1 -12 14 2 23 15 15 22 -2 2 -10 -2 -16
-10z"/>
<path d="M1416 2865 c4 -8 8 -15 10 -15 2 0 4 7 4 15 0 8 -4 15 -10 15 -5 0
-7 -7 -4 -15z"/>
<path d="M1130 2824 c0 -5 -12 -16 -26 -25 -21 -13 -23 -17 -10 -22 17 -7 54
38 42 50 -3 3 -6 2 -6 -3z"/>
<path d="M1236 2867 c3 -10 9 -15 12 -12 3 3 0 11 -7 18 -10 9 -11 8 -5 -6z"/>
<path d="M1306 2814 c-4 -9 -4 -19 -1 -22 3 -3 5 0 5 7 0 7 4 9 10 6 6 -3 7 1
4 9 -8 20 -10 20 -18 0z"/>
<path d="M590 2180 c-8 -5 -12 -12 -9 -15 4 -3 12 1 19 10 14 17 11 19 -10 5z"/>
<path d="M2745 2130 c-3 -5 -2 -10 4 -10 5 0 13 5 16 10 3 6 2 10 -4 10 -5 0
-13 -4 -16 -10z"/>
<path d="M1670 3323 c0 -8 -16 -23 -35 -34 -37 -22 -43 -33 -23 -45 6 -4 8 -3
5 3 -4 6 0 16 8 23 8 7 15 9 15 4 0 -5 5 -2 10 6 6 9 10 11 10 3 0 -7 7 -10
15 -7 8 4 12 10 9 15 -3 5 -10 6 -16 3 -7 -4 -8 -2 -4 5 5 8 13 7 29 -4 28
-20 32 -19 34 5 1 11 -2 20 -8 20 -5 0 -9 -5 -9 -11 0 -5 -4 -7 -10 -4 -19 12
-10 21 20 21 17 0 30 -4 30 -9 0 -5 8 -3 17 4 14 12 15 12 9 0 -7 -10 -3 -12
15 -6 22 7 22 7 6 -9 -18 -18 -23 -37 -9 -35 18 3 32 -2 32 -12 0 -5 -5 -7
-12 -3 -7 5 -8 3 -3 -7 7 -11 6 -12 -7 -2 -15 13 -28 8 -28 -9 0 -5 4 -7 9 -3
6 3 14 -3 20 -12 9 -16 10 -16 11 -1 0 9 4 19 9 23 6 3 9 -4 8 -15 -1 -10 -7
-22 -14 -24 -7 -3 -10 -13 -6 -23 3 -10 3 -15 -1 -11 -7 5 -13 27 -15 51 -1 5
-6 5 -12 1 -8 -4 -7 -9 2 -15 8 -5 10 -9 6 -9 -4 0 -3 -9 3 -21 9 -16 14 -18
26 -9 7 7 12 16 9 20 -3 5 -1 11 4 14 9 6 8 23 -4 81 -9 44 -19 50 -90 51 -48
0 -65 -4 -65 -13z"/>
<path d="M1736 3303 c-3 -4 1 -11 9 -17 14 -10 14 -13 0 -31 -10 -14 -14 -15
-13 -5 2 8 7 18 13 22 5 4 -9 5 -30 2 -22 -2 -46 -5 -52 -6 -7 -1 -13 -5 -13
-10 0 -11 7 -10 31 2 12 7 25 7 35 2 15 -8 15 -10 0 -15 -10 -4 -15 -3 -11 3
9 15 -12 12 -28 -5 -8 -8 -18 -11 -21 -7 -4 3 -4 -2 0 -13 4 -11 4 -17 0 -13
-7 5 -13 27 -15 51 -1 5 -6 5 -11 2 -7 -4 -7 -12 0 -25 7 -13 6 -21 -5 -30 -9
-7 -13 -15 -10 -18 3 -3 0 -11 -6 -19 -6 -7 -10 -13 -8 -14 31 -6 40 -5 49 7
7 7 9 17 7 21 -6 10 14 37 28 40 6 1 18 5 28 8 10 4 18 2 18 -4 1 -6 2 -17 3
-23 1 -16 36 -23 36 -8 0 7 -6 10 -13 7 -8 -3 -14 1 -14 8 0 8 7 11 16 7 13
-5 14 -3 3 10 -10 13 -10 17 1 21 19 7 14 50 -6 53 -8 1 -18 0 -21 -3z m-86
-97 c0 -2 -7 -7 -16 -10 -8 -3 -12 -2 -9 4 6 10 25 14 25 6z m-2 -28 c-2 -6
-12 -12 -21 -14 -9 -1 -15 2 -11 7 3 5 10 7 15 4 5 -4 9 -1 9 4 0 6 3 11 6 11
3 0 4 -5 2 -12z"/>
<path d="M1833 3185 c0 -8 4 -15 9 -15 4 0 8 7 8 15 0 8 -4 15 -8 15 -5 0 -9
-7 -9 -15z"/>
<path d="M973 3174 c-3 -8 -11 -13 -17 -11 -7 3 -23 -4 -37 -14 -13 -10 -22
-19 -19 -20 52 -10 53 -9 40 6 -9 10 -9 15 -1 15 6 0 11 -4 11 -10 0 -18 18
-11 25 9 3 11 12 18 20 15 7 -3 16 0 21 7 4 8 3 10 -4 5 -7 -4 -12 -2 -12 3 0
17 -20 13 -27 -5z"/>
<path d="M2355 3170 c3 -5 1 -10 -4 -10 -17 0 -51 -39 -40 -45 5 -4 7 -11 4
-16 -4 -5 -2 -9 3 -9 16 0 22 13 12 25 -7 9 -5 17 7 26 16 13 17 12 4 -3 -13
-18 -5 -24 14 -10 14 10 17 52 4 52 -5 0 -7 -4 -4 -10z"/>
<path d="M2380 3170 c-2 -3 -3 -31 -4 -62 -2 -44 1 -55 10 -47 8 7 14 7 19 -1
3 -5 12 -10 18 -10 7 1 2 9 -10 19 -27 23 -29 32 -5 25 16 -5 16 -5 0 9 -10 8
-18 18 -18 22 0 4 7 2 15 -5 14 -12 35 -6 35 10 0 5 -7 6 -17 3 -12 -5 -14 -3
-8 7 6 10 4 12 -8 7 -10 -4 -17 0 -20 11 -3 9 -6 15 -7 12z"/>
<path d="M996 3151 c-15 -6 -16 -10 -7 -16 8 -4 17 -2 23 6 8 11 8 10 4 -4 -4
-12 -2 -17 6 -15 15 5 17 30 3 34 -5 1 -19 -1 -29 -5z"/>
<path d="M886 3118 c5 -7 9 -22 9 -32 0 -11 6 -21 13 -23 7 -3 10 1 6 10 -3 8
-1 18 5 22 6 3 11 11 11 17 0 6 -3 8 -6 5 -4 -3 -16 -2 -27 4 -15 9 -18 8 -11
-3z"/>
<path d="M944 3105 c-14 -14 -23 -29 -19 -34 11 -19 -17 -23 -36 -5 -10 9 -19
12 -19 6 0 -6 6 -13 13 -15 7 -4 8 -6 1 -6 -6 -1 -17 5 -23 13 -10 11 -8 16 8
21 21 6 29 25 11 25 -17 0 -25 -5 -22 -13 1 -4 -6 -7 -15 -5 -12 2 -18 -3 -17
-15 2 -13 -1 -15 -11 -7 -21 17 -48 -27 -33 -54 6 -12 11 -22 10 -23 -6 -9 0
-23 9 -23 5 0 7 5 3 12 -10 16 -13 67 -4 73 4 2 7 -12 7 -32 -1 -20 4 -38 11
-41 7 -2 10 2 7 11 -3 7 1 20 10 27 8 7 15 17 15 22 0 6 -7 5 -15 -2 -9 -7
-15 -8 -15 -2 0 17 28 22 41 6 7 -8 20 -12 30 -9 12 4 21 1 25 -9 3 -9 10 -13
16 -10 5 3 5 11 -2 19 -8 9 -7 14 5 18 8 4 12 13 9 21 -3 8 0 17 7 22 18 11
59 13 59 3 0 -5 5 -9 10 -9 19 0 10 17 -15 28 -34 16 -32 16 -61 -13z"/>
<path d="M2434 3105 c-16 -25 -12 -45 9 -45 7 0 6 4 -3 10 -26 17 1 11 31 -7
16 -10 29 -21 29 -26 0 -4 -10 -1 -22 7 -15 11 -26 12 -40 5 -13 -7 -23 -7
-32 0 -7 6 -16 8 -19 4 -10 -9 -9 -25 1 -19 4 2 14 0 22 -5 13 -8 12 -11 -3
-23 -16 -12 -16 -14 -2 -20 9 -3 14 -2 11 3 -3 5 1 12 10 15 8 3 13 10 10 15
-7 11 22 23 35 15 12 -7 11 -24 -2 -24 -5 0 -7 5 -4 10 11 17 -7 11 -21 -7
-17 -23 -18 -37 -1 -26 6 4 29 8 49 9 33 1 35 -1 20 -12 -10 -8 -12 -13 -5
-14 7 0 21 10 33 22 11 12 23 18 27 15 3 -4 1 -7 -6 -7 -8 0 -11 -6 -7 -16 3
-8 2 -12 -4 -9 -5 3 -26 -10 -47 -30 -23 -22 -43 -33 -53 -30 -10 3 -17 0 -17
-10 0 -14 29 -16 43 -3 3 4 13 4 22 1 9 -4 13 -2 9 4 -9 14 22 54 40 51 10 -2
19 11 28 39 12 40 11 43 -9 50 -11 4 -26 6 -33 5 -6 -1 -27 7 -47 19 -36 21
-47 39 -24 39 6 0 8 -3 5 -7 -9 -9 47 -42 70 -41 10 0 27 -2 38 -6 13 -5 11
-2 -5 7 -14 9 -28 13 -32 11 -5 -3 -8 0 -8 6 0 6 -4 8 -10 5 -5 -3 -10 -1 -10
5 0 6 -4 8 -10 5 -5 -3 -10 -2 -10 2 0 5 -9 14 -20 21 -17 10 -22 9 -36 -13z
m91 -75 c-3 -5 -2 -10 4 -10 5 0 12 5 14 10 3 6 4 5 3 -2 -1 -7 -15 -14 -29
-15 -22 -1 -25 1 -14 12 14 16 31 20 22 5z"/>
<path d="M2342 3100 c-17 -28 -15 -35 6 -19 15 13 16 12 4 -3 -8 -9 -11 -22
-7 -28 3 -5 1 -10 -5 -10 -6 0 -8 -5 -5 -11 4 -6 14 -8 22 -5 9 4 11 2 7 -6
-5 -7 -3 -8 7 -3 12 7 12 6 1 -7 -10 -13 -9 -18 4 -29 13 -11 15 -11 14 2 -4
28 0 40 13 33 7 -4 9 -3 4 2 -5 5 -12 9 -16 9 -15 0 -41 34 -31 40 9 6 9 39
-1 49 -3 3 -10 -4 -17 -14z"/>
<path d="M1038 3094 c-11 -12 -21 -14 -33 -6 -20 11 -55 5 -55 -10 0 -5 13 -7
29 -5 24 4 28 2 24 -11 -5 -11 -3 -13 8 -6 19 12 40 14 34 3 -4 -5 2 -6 12 -3
12 3 10 1 -4 -8 -21 -13 -21 -14 -5 -24 10 -6 18 -22 19 -35 2 -21 1 -22 -8
-6 -6 9 -15 15 -20 11 -5 -3 -9 -2 -8 3 3 20 -2 34 -11 28 -6 -4 -8 -11 -5
-16 3 -5 0 -7 -7 -6 -7 2 -10 2 -6 0 4 -2 4 -11 1 -19 -4 -11 -9 -8 -19 11 -7
14 -11 32 -7 40 4 11 0 14 -13 9 -16 -5 -16 -4 -4 5 9 7 10 11 3 11 -17 0 -27
-20 -15 -32 6 -6 8 -17 5 -26 -4 -10 -2 -13 5 -8 6 3 13 2 17 -4 3 -6 -1 -13
-10 -16 -12 -5 -13 -9 -4 -20 9 -11 8 -14 -1 -14 -10 0 -10 -3 0 -15 9 -11 9
-15 1 -15 -7 0 -10 -4 -7 -9 3 -5 -3 -20 -15 -34 -11 -15 -20 -29 -19 -32 2
-24 -1 -29 -9 -16 -11 18 -32 5 -24 -15 3 -8 8 -13 11 -10 2 3 14 0 26 -6 18
-10 19 -9 9 3 -14 17 -1 45 15 35 7 -4 9 3 6 19 -3 15 0 25 7 25 7 0 9 3 6 6
-3 4 -1 16 5 28 7 11 12 28 13 36 0 8 7 14 16 14 11 -1 15 5 12 17 -7 24 5 24
37 2 38 -27 52 -25 33 3 -8 13 -11 24 -7 25 42 3 62 14 50 26 -4 4 -10 3 -14
-3 -4 -6 -13 -3 -24 8 -10 10 -15 18 -10 18 4 0 -4 9 -18 20 -15 13 -18 18 -7
14 13 -5 16 -2 11 10 -7 20 -6 20 -26 0z m52 -75 c0 -14 -17 -10 -23 5 -4 10
-1 13 9 9 7 -3 14 -9 14 -14z m-100 -53 c0 -3 -4 -8 -10 -11 -5 -3 -10 -1 -10
4 0 6 5 11 10 11 6 0 10 -2 10 -4z"/>
<path d="M2285 3092 c3 -10 0 -12 -10 -8 -14 5 -17 1 -19 -34 -1 -7 9 -24 22
-37 13 -13 20 -28 17 -33 -3 -6 -2 -10 4 -10 5 0 8 -9 6 -20 -2 -11 0 -18 5
-15 15 9 22 -15 10 -30 -7 -8 -9 -15 -5 -15 4 0 2 -6 -4 -14 -9 -11 -9 -16 0
-22 6 -4 16 0 21 10 5 9 13 14 18 11 5 -3 11 -1 15 5 3 5 10 10 14 10 10 0 8
-60 -2 -76 -8 -15 1 -24 18 -18 8 3 18 -4 25 -15 6 -12 8 -21 4 -21 -3 0 -2
-6 5 -13 8 -10 7 -17 -2 -26 -8 -8 -8 -11 -1 -9 6 2 21 -8 32 -22 27 -33 38
-20 17 19 -8 17 -12 31 -8 31 5 0 0 5 -11 11 -15 9 -16 13 -5 20 11 8 10 12
-5 24 -10 8 -22 12 -26 10 -4 -3 -7 3 -6 13 0 10 -5 16 -13 14 -12 -3 -12 0
-2 12 11 13 10 21 -4 42 -13 21 -19 24 -26 13 -7 -12 -9 -12 -9 0 0 11 -4 9
-16 -5 -14 -18 -14 -18 -3 6 7 14 12 26 11 28 -6 8 0 22 7 17 19 -11 23 17 5
36 -9 10 -13 19 -8 19 5 0 -1 7 -13 15 -13 9 -20 22 -16 31 3 8 -2 23 -11 33
-9 10 -14 20 -11 23 3 2 -2 5 -10 5 -10 0 -14 -6 -10 -15z m25 -27 c0 -8 -1
-17 -2 -19 -2 -2 5 -12 14 -22 14 -16 14 -22 3 -37 -11 -15 -14 -15 -18 -3 -4
9 -2 18 4 21 11 7 2 25 -12 25 -6 0 -7 -6 -3 -12 5 -9 2 -8 -9 1 -10 8 -15 16
-12 19 3 3 -1 12 -8 20 -8 11 -8 14 0 9 6 -4 14 -3 18 3 9 15 25 12 25 -5z
m51 -92 c8 -9 9 -14 2 -10 -7 4 -14 -1 -18 -13 -5 -15 -9 -17 -19 -8 -10 10
-9 15 3 30 19 22 16 22 32 1z m49 -157 c0 -2 -7 -7 -16 -10 -8 -3 -12 -2 -9 4
6 10 25 14 25 6z m40 -31 c0 -12 -19 -12 -23 0 -4 9 -1 12 9 8 7 -3 14 -7 14
-8z m20 -86 c15 -28 5 -23 -15 7 -9 15 -12 23 -6 20 6 -4 16 -16 21 -27z"/>
<path d="M2289 3068 c-7 -25 -5 -36 6 -31 8 2 11 11 8 19 -5 12 -12 18 -14 12z"/>
<path d="M983 3040 c0 -20 3 -26 9 -18 4 7 8 9 8 4 0 -12 30 14 30 26 0 6 -6
6 -14 -1 -11 -10 -16 -9 -24 4 -7 13 -9 9 -9 -15z"/>
<path d="M843 3018 c-13 -16 -13 -48 0 -48 5 0 7 6 4 14 -3 8 0 19 7 26 10 8
16 6 21 -7 5 -10 9 -22 9 -27 1 -5 7 -11 14 -14 7 -2 10 2 6 12 -3 9 -1 16 6
16 6 0 9 -4 5 -9 -3 -5 -1 -12 5 -16 6 -4 7 -11 4 -17 -4 -6 -3 -8 3 -5 5 3
10 0 10 -7 0 -14 -32 -15 -44 -1 -5 4 -2 5 5 1 6 -4 12 -2 12 4 0 7 -8 9 -19
5 -11 -3 -22 -1 -26 4 -4 7 1 8 12 4 16 -6 17 -5 3 12 -8 10 -14 21 -12 24 2
3 -1 7 -6 9 -6 2 -9 -5 -8 -15 0 -12 -6 -18 -19 -19 -40 -2 -46 -4 -40 -14 3
-5 13 -6 22 -3 12 5 14 3 8 -8 -8 -12 -6 -12 8 0 14 11 20 11 35 0 9 -7 19
-15 21 -16 2 -1 -2 -10 -10 -20 -8 -9 -9 -14 -3 -10 7 4 14 0 18 -8 3 -9 12
-12 23 -8 17 7 17 6 1 -11 -16 -16 -43 -14 -35 2 2 4 -4 15 -15 25 -14 13 -18
14 -18 3 0 -8 5 -18 11 -21 6 -4 8 -14 5 -22 -3 -8 -1 -11 4 -8 5 3 19 1 31
-6 12 -6 19 -7 15 -1 -3 5 1 15 9 22 8 7 12 16 9 21 -3 5 -1 9 4 9 4 0 8 29 8
64 0 40 -4 62 -11 58 -18 -11 -45 -9 -56 5 -14 16 -24 17 -36 1z m87 -118 c0
-4 -7 -7 -15 -6 -23 3 -26 12 -5 13 11 1 20 -2 20 -7z"/>
<path d="M890 3019 c0 -5 5 -7 10 -4 6 3 10 8 10 11 0 2 -4 4 -10 4 -5 0 -10
-5 -10 -11z"/>
<path d="M2446 2983 c-4 -5 -15 -8 -24 -8 -9 0 -29 -13 -44 -28 -24 -24 -26
-31 -7 -29 11 2 42 -38 44 -56 4 -29 17 -52 26 -46 5 3 9 1 9 -5 0 -13 33 -7
38 7 2 6 -5 10 -16 7 -29 -5 -50 11 -23 20 23 7 25 13 11 35 -8 12 -10 12 -10
1 0 -11 -3 -11 -15 -1 -8 7 -12 16 -9 21 3 5 -1 9 -8 9 -9 0 -9 3 2 10 8 5 22
7 31 5 22 -7 53 29 42 50 -8 14 -11 13 -29 -6 l-19 -22 25 8 c24 7 24 7 5 -11
-13 -13 -20 -15 -23 -6 -2 6 -10 12 -18 12 -9 0 -12 -4 -9 -10 3 -5 1 -10 -4
-10 -6 0 -11 5 -11 11 0 5 -5 7 -12 3 -7 -4 -8 -3 -4 5 4 6 12 9 17 6 5 -4 9
-2 9 4 0 6 6 8 13 5 8 -3 20 2 27 11 12 15 0 22 -14 8z m-39 -68 c0 -20 -4
-19 -17 5 -8 15 -8 18 3 14 8 -3 14 -11 14 -19z m46 -48 c4 3 7 3 7 0 0 -3 -8
-11 -18 -16 -14 -7 -18 -6 -18 9 0 13 4 16 12 10 6 -6 14 -7 17 -3z"/>
<path d="M2527 2944 c-3 -3 -3 -13 0 -22 4 -10 2 -13 -6 -8 -7 5 -10 2 -9 -6
2 -7 -6 -13 -17 -13 -15 0 -20 -7 -21 -32 -1 -18 2 -30 6 -28 5 3 12 1 15 -5
8 -12 -13 -42 -24 -35 -7 3 -7 -30 -1 -45 1 -3 2 -8 1 -12 0 -5 4 -8 10 -8 5
0 8 -4 5 -8 -7 -12 12 -38 21 -28 4 5 2 11 -5 13 -14 5 -6 23 10 23 6 0 8 -3
5 -6 -3 -4 -2 -16 4 -27 7 -13 7 -17 1 -13 -6 3 -14 1 -18 -5 -4 -7 -3 -9 3
-6 6 4 15 1 20 -6 12 -18 10 -52 -5 -53 -6 -1 -16 -2 -20 -3 -9 -1 -12 -19
-12 -63 0 -16 -4 -28 -10 -28 -5 0 -7 8 -4 18 5 14 4 15 -5 2 -8 -12 -5 -19
14 -33 14 -10 22 -24 19 -29 -4 -6 -2 -8 3 -5 6 4 20 -7 31 -24 12 -19 22 -27
26 -20 4 6 1 11 -6 11 -10 0 -10 2 1 9 9 6 10 11 2 15 -16 10 -13 29 3 23 10
-4 13 -1 9 9 -4 10 -9 12 -18 4 -6 -5 -15 -7 -19 -3 -4 4 -4 -1 0 -12 7 -17 6
-18 -8 -5 -10 9 -12 17 -6 21 6 4 5 8 -3 11 -17 6 -19 49 -2 55 7 3 10 10 7
15 -4 6 -10 5 -16 -3 -8 -11 -9 -11 -5 1 2 8 10 14 16 13 6 -2 11 2 11 8 0 5
4 8 9 4 5 -3 13 0 17 6 5 8 3 9 -7 4 -12 -7 -12 -6 0 6 11 11 14 11 18 1 4
-10 9 -8 19 5 12 15 15 16 23 3 6 -8 6 -19 1 -25 -5 -6 -5 -17 0 -25 6 -8 10
-12 11 -7 1 4 3 12 4 17 1 6 3 15 4 21 0 5 7 7 14 3 6 -4 3 2 -7 15 -15 17
-28 21 -57 18 -28 -3 -36 0 -32 10 3 7 9 11 13 8 4 -3 10 1 13 9 3 8 -10 27
-33 45 -37 30 -43 43 -27 68 6 9 3 11 -10 7 -16 -5 -15 -3 2 11 11 9 19 21 17
27 -2 6 2 14 9 18 8 6 8 13 0 29 -10 18 -9 20 6 14 12 -5 15 -2 10 10 -3 9 -2
19 4 22 5 4 7 11 4 16 -7 10 -19 12 -28 3z m-17 -68 c-7 -7 -13 -7 -20 0 -6 6
-3 10 10 10 13 0 16 -4 10 -10z m10 -21 c-6 -8 -9 -19 -5 -25 3 -5 4 -10 1
-10 -3 0 -10 10 -17 21 -7 13 -7 19 -1 15 6 -3 13 -2 17 4 3 5 9 10 12 10 3 0
0 -7 -7 -15z m-23 -108 c1 -11 1 -18 0 -16 -2 2 -8 11 -15 20 -9 12 -9 16 1
16 7 0 14 -9 14 -20z m56 -70 c-8 -5 -17 -6 -20 -3 -4 3 0 6 7 6 9 0 7 7 -6
22 l-19 22 27 -20 c21 -15 23 -21 11 -27z"/>
<path d="M1056 2922 c-3 -5 1 -9 9 -9 8 0 12 4 9 9 -3 4 -7 8 -9 8 -2 0 -6 -4
-9 -8z"/>
<path d="M779 2702 c-11 -7 -17 -18 -14 -23 4 -5 0 -9 -7 -9 -16 -1 -76 -60
-60 -60 5 0 13 6 15 13 4 9 6 9 6 -1 1 -7 -7 -15 -16 -19 -32 -11 -44 -25 -33
-38 7 -8 1 -18 -18 -32 -28 -20 -29 -21 -40 -2 -7 10 -17 19 -24 19 -6 0 -4
-7 5 -18 10 -10 17 -24 17 -30 0 -18 18 -14 30 6 10 16 10 16 8 -2 -2 -10 2
-21 8 -23 7 -2 11 8 10 24 -1 17 4 27 11 26 7 -2 10 9 7 30 -2 23 -1 28 6 17
6 -10 10 -11 10 -2 0 6 7 12 15 12 14 0 20 12 16 34 -3 13 20 36 30 30 5 -3 9
0 9 5 0 6 5 11 11 11 5 0 7 -5 3 -12 -5 -8 -2 -9 9 -5 10 3 17 2 17 -3 0 -6
-6 -10 -12 -10 -10 0 -9 -3 1 -9 11 -7 11 -9 0 -14 -12 -5 -12 -6 0 -6 11 -1
11 -4 1 -16 -10 -12 -10 -15 0 -15 10 0 10 -3 0 -15 -10 -12 -10 -15 4 -15 9
0 16 -5 16 -11 0 -5 -4 -7 -10 -4 -5 3 -18 1 -27 -5 -15 -9 -14 -10 7 -5 19 5
22 4 10 -4 -13 -10 -13 -11 0 -12 8 -1 18 -1 23 0 4 0 7 -4 7 -10 0 -6 -9 -8
-22 -3 -20 6 -21 5 -9 -10 10 -12 10 -16 1 -16 -7 0 -10 -7 -6 -15 4 -13 2
-13 -14 -5 -15 8 -21 6 -30 -9 -13 -26 -13 -27 9 -28 11 -1 27 7 37 18 9 10
14 19 10 19 -4 0 5 15 20 33 15 17 31 32 35 32 5 0 21 14 35 30 14 17 29 30
34 30 5 0 11 3 14 6 3 3 -2 6 -11 6 -10 0 -21 -5 -25 -11 -4 -6 -12 -11 -18
-11 -6 0 -19 -11 -29 -24 l-19 -24 -13 24 c-19 34 -19 47 -2 53 12 5 13 9 3
21 -12 15 -10 17 20 19 15 1 21 23 11 41 -3 6 -6 17 -6 25 0 19 -49 21 -76 2z
m30 1 c-3 -20 2 -36 9 -29 4 4 7 12 7 17 0 11 15 12 16 2 0 -5 6 -15 12 -23 6
-8 8 -12 3 -8 -5 4 -16 -1 -25 -10 -9 -10 -13 -13 -8 -8 4 6 7 14 7 18 0 4 -3
7 -7 6 -5 -1 -18 2 -31 6 -22 7 -22 8 -5 22 21 16 23 16 22 7z m71 -163 c-6
-11 -13 -20 -16 -20 -2 0 0 9 6 20 6 11 13 20 16 20 2 0 0 -9 -6 -20z m-46
-18 c3 -5 -1 -9 -9 -9 -8 0 -12 4 -9 9 3 4 7 8 9 8 2 0 6 -4 9 -8z m-44 -88
c0 -8 -19 -13 -24 -6 -3 5 1 9 9 9 8 0 15 -2 15 -3z"/>
<path d="M875 2700 c3 -5 8 -10 11 -10 2 0 4 5 4 10 0 6 -5 10 -11 10 -5 0 -7
-4 -4 -10z"/>
<path d="M1030 2659 c0 -5 5 -7 10 -4 6 3 10 8 10 11 0 2 -4 4 -10 4 -5 0 -10
-5 -10 -11z"/>
<path d="M2575 2660 c-3 -6 1 -7 9 -4 18 7 21 14 7 14 -6 0 -13 -4 -16 -10z"/>
<path d="M749 2638 c-1 -4 -1 -15 -1 -23 0 -30 2 -36 13 -29 8 4 7 9 -2 16
-12 8 -12 9 0 6 8 -2 15 -12 17 -21 1 -9 -2 -15 -6 -12 -5 3 -11 2 -14 -3 -2
-4 3 -13 13 -19 15 -10 17 -6 17 33 0 24 -4 44 -8 44 -5 0 -7 4 -4 8 3 5 -1 9
-9 9 -8 0 -16 -4 -16 -9z"/>
<path d="M480 2621 c0 -5 5 -13 10 -16 6 -3 10 -2 10 4 0 5 -4 13 -10 16 -5 3
-10 2 -10 -4z"/>
<path d="M2586 2615 c-3 -8 -11 -14 -17 -13 -6 2 -14 -3 -17 -11 -2 -8 0 -11
6 -7 6 3 13 0 15 -6 4 -10 6 -10 6 0 1 7 6 10 13 6 7 -5 8 -3 3 6 -4 7 -2 16
5 20 8 5 8 10 2 14 -5 3 -13 -1 -16 -9z"/>
<path d="M2411 2574 c12 -13 26 -21 31 -18 12 8 -18 41 -37 41 -12 0 -10 -6 6
-23z m20 -1 c13 -16 12 -17 -3 -4 -10 7 -18 15 -18 17 0 8 8 3 21 -13z"/>
<path d="M2635 2590 c4 -6 11 -8 16 -5 5 4 9 1 9 -5 0 -6 -7 -10 -16 -8 -10 2
-19 -2 -21 -8 -2 -7 6 -11 19 -10 13 1 29 -2 36 -7 18 -14 15 9 -5 33 -18 20
-50 29 -38 10z"/>
<path d="M722 2583 c-7 -3 -17 -14 -23 -25 -8 -15 -8 -19 0 -14 6 4 11 2 11
-4 0 -6 5 -8 10 -5 8 5 7 12 -2 23 -7 9 -8 13 -3 10 6 -4 17 -3 24 1 15 10 2
20 -17 14z"/>
<path d="M2531 2583 c3 -18 -1 -34 -9 -29 -4 2 -8 -4 -8 -14 0 -10 3 -17 7
-14 4 2 10 -4 13 -13 5 -11 10 -13 17 -6 5 5 7 18 3 27 -5 14 -9 15 -16 4 -8
-11 -9 -10 -6 1 5 19 38 23 45 5 3 -8 9 -11 14 -8 5 3 6 10 3 16 -5 7 -2 8 5
3 9 -5 10 -10 2 -18 -16 -16 -13 -31 3 -18 7 6 20 9 28 6 8 -3 20 0 26 8 10
12 8 14 -14 11 -15 -1 -27 3 -31 13 -3 8 -14 13 -24 10 -10 -3 -27 2 -39 10
-11 8 -20 11 -19 6z"/>
<path d="M735 2550 c7 -12 -17 -26 -41 -25 -17 2 -20 -4 -21 -36 0 -22 3 -39
9 -39 5 0 8 6 7 13 -3 25 1 38 11 32 5 -3 16 5 25 19 10 14 22 23 31 19 8 -3
14 -1 14 5 0 5 -9 12 -20 15 -11 3 -18 2 -15 -3z"/>
<path d="M2561 2545 c0 -5 6 -21 14 -35 19 -33 19 -43 -1 -36 -14 5 -15 4 -4
-9 7 -8 9 -15 4 -15 -5 0 0 -7 10 -15 11 -8 16 -15 11 -15 -4 0 0 -9 10 -20
13 -14 15 -23 7 -32 -7 -9 -5 -19 8 -35 15 -19 20 -20 30 -8 12 15 6 35 -12
35 -7 0 -6 -6 2 -15 9 -10 9 -15 1 -15 -12 0 -13 5 -13 58 0 21 -7 36 -18 42
-20 11 -20 47 0 42 7 -2 10 5 6 20 -3 13 -3 17 0 11 4 -9 11 -10 23 -3 14 7
17 5 16 -12 -1 -11 -9 -24 -18 -30 -9 -5 -17 -13 -17 -19 0 -5 10 -3 23 5 21
14 22 14 23 -10 2 -27 10 -41 20 -32 3 4 1 15 -5 27 -8 14 -8 22 -1 26 8 5 8
11 0 20 -6 7 -9 19 -8 26 3 16 -49 20 -69 6 -7 -5 -17 2 -27 20 -8 15 -15 24
-15 18z"/>
<path d="M720 2499 c-14 -14 -24 -31 -22 -37 8 -25 -22 -22 -44 4 -13 16 -23
24 -24 18 0 -6 7 -17 15 -24 9 -7 14 -19 11 -27 -6 -13 41 -39 52 -28 3 2 -6
9 -19 14 -14 6 -18 10 -9 11 8 1 23 3 33 5 13 2 15 0 9 -8 -7 -8 -5 -16 4 -24
11 -11 12 -7 9 23 -3 22 -1 33 5 29 5 -3 10 -1 10 5 0 6 8 10 17 8 26 -4 25
38 -1 49 -16 7 -26 3 -46 -18z m60 -27 c0 -2 -5 0 -10 3 -6 4 -22 0 -34 -9
-22 -14 -24 -14 -21 2 1 9 9 16 18 14 12 -2 15 2 10 14 -5 14 -3 14 15 -2 12
-10 22 -20 22 -22z"/>
<path d="M2626 2474 c-3 -8 -10 -13 -14 -10 -5 3 -9 -1 -9 -9 0 -12 4 -12 21
2 12 10 22 19 24 19 2 1 -1 5 -6 8 -6 3 -13 -1 -16 -10z"/>
<path d="M2715 2460 c3 -5 8 -10 11 -10 2 0 4 5 4 10 0 6 -5 10 -11 10 -5 0
-7 -4 -4 -10z"/>
<path d="M599 2434 c-9 -11 -9 -17 0 -28 7 -8 8 -16 4 -18 -4 -3 -2 -3 6 -1 8
2 22 -4 32 -13 14 -13 22 -13 39 -4 17 9 19 14 10 23 -9 9 -15 8 -22 -4 -9
-14 -14 -13 -34 8 -32 32 -31 43 1 13 14 -13 25 -19 25 -14 0 6 -11 20 -24 32
-21 18 -26 19 -37 6z"/>
<path d="M2639 2438 c-6 -25 -6 -38 2 -38 4 0 6 -7 3 -15 -4 -8 1 -17 10 -21
12 -4 15 -16 12 -48 -3 -23 0 -49 5 -57 8 -11 9 -9 7 7 -2 11 3 28 11 37 10
13 11 20 2 31 -9 10 -9 16 -1 21 6 4 14 4 17 1 3 -3 12 -1 18 4 9 8 14 6 19
-5 3 -9 10 -13 16 -10 7 4 6 11 -3 19 -20 20 -57 37 -66 31 -15 -9 -40 6 -35
20 3 7 1 16 -5 20 -6 3 -11 5 -12 3z m76 -58 c3 -5 1 -10 -4 -10 -6 0 -11 5
-11 10 0 6 2 10 4 10 3 0 8 -4 11 -10z"/>
<path d="M737 2386 c-10 -11 -16 -16 -12 -9 3 6 1 14 -4 17 -10 7 -24 -20 -25
-49 -1 -13 -7 -19 -18 -19 -21 2 -23 -7 -5 -25 10 -11 8 -11 -10 0 -16 9 -19
17 -12 25 6 7 17 10 25 7 8 -3 14 0 14 5 0 21 -18 22 -41 3 -23 -19 -23 -20
-5 -39 17 -20 14 -48 -5 -37 -5 4 -9 2 -9 -4 0 -25 21 -18 43 14 13 19 27 32
31 28 4 -4 4 0 0 10 -4 11 0 19 10 23 15 6 15 8 -1 20 -14 11 -14 13 -2 9 18
-7 67 29 53 37 -5 3 -17 -4 -27 -16z"/>
<path d="M2595 2380 c-3 -5 -1 -10 4 -10 6 0 11 5 11 10 0 6 -2 10 -4 10 -3 0
-8 -4 -11 -10z"/>
<path d="M1866 242 c-2 -4 4 -8 14 -8 10 0 16 4 14 8 -3 4 -9 8 -14 8 -5 0
-11 -4 -14 -8z"/>
<path d="M1315 230 c-4 -6 -12 -7 -18 -3 -12 7 5 -19 30 -44 9 -10 12 -9 17 3
9 23 7 27 -8 21 -20 -8 -28 4 -15 20 6 7 9 13 6 13 -3 0 -9 -5 -12 -10z"/>
<path d="M1954 233 c4 -8 -2 -17 -18 -25 -19 -8 -25 -17 -22 -33 3 -15 -7 -36
-26 -59 -31 -38 -17 -53 15 -16 9 11 14 20 10 20 -3 0 2 9 11 19 10 11 15 24
12 29 -3 5 1 9 9 9 8 0 11 -5 8 -10 -3 -6 -1 -7 5 -3 6 3 9 -1 7 -11 -1 -10 2
-24 8 -32 11 -12 17 -32 19 -58 1 -7 5 -10 9 -7 4 2 10 -2 12 -8 3 -8 6 -6 6
5 1 9 -4 17 -11 17 -16 0 -1 13 18 16 11 2 13 -4 9 -19 -5 -17 -4 -19 4 -7 10
14 15 7 12 -13 -1 -5 4 -5 10 -2 8 5 8 10 0 18 -17 17 -13 31 4 17 8 -7 15 -9
15 -4 0 5 7 0 15 -10 12 -16 15 -17 15 -4 0 9 -5 18 -11 20 -6 2 -4 12 8 24
10 11 14 14 9 7 -5 -8 -7 -15 -5 -16 2 -1 13 -9 23 -17 13 -10 17 -10 12 -2
-5 8 0 12 13 12 12 0 21 4 21 9 0 18 -19 22 -42 10 -23 -12 -23 -11 1 15 14
14 29 26 34 26 6 0 7 -3 4 -6 -3 -4 0 -16 8 -26 7 -11 11 -28 8 -37 -4 -14 -3
-14 7 1 13 21 44 12 35 -11 -5 -13 -4 -14 7 -3 11 11 10 16 -5 27 -18 13 -18
14 1 24 12 6 27 9 34 6 7 -3 27 4 43 15 17 11 25 20 18 20 -6 0 -15 -4 -18
-10 -3 -5 -11 -10 -17 -10 -7 0 -6 6 2 15 9 10 9 15 1 15 -10 0 -15 -13 -12
-32 0 -5 -4 -8 -9 -8 -5 0 -10 4 -10 9 0 5 -9 13 -21 16 -11 4 -24 16 -29 28
-6 16 -9 17 -9 6 -1 -9 -8 -22 -16 -29 -18 -15 -20 1 -2 19 8 9 8 12 0 7 -6
-3 -18 1 -27 9 -14 15 -15 13 -12 -14 2 -18 -2 -36 -10 -42 -12 -10 -14 -5
-10 27 3 22 2 31 0 22 -3 -10 -10 -18 -15 -18 -6 0 -7 6 -3 13 4 6 -2 4 -13
-5 -30 -27 -40 -21 -13 7 13 14 20 28 17 32 -4 3 -7 1 -7 -6 0 -7 -5 -9 -10
-6 -6 4 -23 -1 -37 -10 -23 -16 -25 -16 -20 -1 8 21 -14 16 -31 -6 -7 -10 -18
-18 -24 -18 -6 0 -5 7 3 17 10 11 10 14 2 9 -7 -4 -14 -2 -14 3 -1 6 -2 15 -3
20 0 5 -5 13 -10 18 -5 5 -6 3 -2 -4z m9 -36 c3 -9 -4 -13 -20 -13 -23 0 -23
1 -7 13 10 7 19 13 20 13 1 0 4 -6 7 -13z m113 -16 c-19 -21 -4 -40 17 -22 8
6 18 6 27 1 10 -7 11 -10 3 -10 -7 0 -12 -3 -11 -7 4 -15 -34 -63 -45 -56 -6
4 -3 11 8 20 11 7 14 13 8 13 -7 0 -19 -7 -27 -16 -12 -12 -16 -12 -16 -2 0 8
-3 9 -8 3 -4 -5 -16 -11 -27 -13 -15 -2 -17 0 -6 6 10 8 8 13 -10 26 -13 9
-18 16 -11 16 7 0 11 4 8 9 -3 4 3 16 13 25 13 12 21 14 26 7 4 -8 13 -6 28 4
30 21 43 19 23 -4z m104 -5 c0 -3 -4 -8 -10 -11 -5 -3 -10 -1 -10 4 0 6 5 11
10 11 6 0 10 -2 10 -4z m30 -36 c-8 -15 -8 -20 -1 -16 12 8 15 -6 4 -17 -3 -4
-12 1 -19 11 -10 14 -10 20 3 35 21 22 28 15 13 -13z m40 0 c0 -5 -7 -10 -15
-10 -8 0 -15 5 -15 10 0 6 7 10 15 10 8 0 15 -4 15 -10z"/>
<path d="M2004 168 c-13 -20 -13 -36 -1 -46 14 -11 47 -12 47 -2 0 4 12 7 27
6 18 -1 27 4 29 17 2 15 0 16 -12 6 -17 -14 -48 6 -37 25 4 7 1 7 -8 -1 -11
-9 -19 -9 -26 -2 -8 8 -13 7 -19 -3z m38 -13 c3 3 11 -3 19 -12 7 -10 10 -15
5 -11 -5 4 -17 3 -27 -3 -15 -8 -17 -6 -12 8 6 16 4 16 -9 5 -16 -13 -17 -12
-9 27 1 2 7 -2 14 -8 8 -6 16 -9 19 -6z"/>
<path d="M950 221 c0 -5 8 -15 18 -22 15 -12 16 -12 5 2 -7 9 -10 19 -6 22 3
4 1 7 -5 7 -7 0 -12 -4 -12 -9z"/>
<path d="M1019 228 c-5 -18 -6 -38 -1 -34 7 8 12 36 6 36 -2 0 -4 -1 -5 -2z"/>
<path d="M1054 216 c1 -8 5 -18 8 -22 4 -3 5 1 4 10 -1 8 -5 18 -8 22 -4 3 -5
-1 -4 -10z"/>
<path d="M1170 220 c0 -5 5 -10 11 -10 5 0 7 5 4 10 -3 6 -8 10 -11 10 -2 0
-4 -4 -4 -10z"/>
<path d="M1220 220 c-9 -6 -10 -10 -3 -10 6 0 15 5 18 10 8 12 4 12 -15 0z"/>
<path d="M1261 214 c0 -11 3 -14 6 -6 3 7 2 16 -1 19 -3 4 -6 -2 -5 -13z"/>
<path d="M1355 220 c3 -5 8 -10 11 -10 2 0 4 5 4 10 0 6 -5 10 -11 10 -5 0 -7
-4 -4 -10z"/>
<path d="M1980 220 c0 -5 5 -10 11 -10 5 0 7 5 4 10 -3 6 -8 10 -11 10 -2 0
-4 -4 -4 -10z"/>
<path d="M890 200 c0 -5 5 -10 11 -10 5 0 7 5 4 10 -3 6 -8 10 -11 10 -2 0 -4
-4 -4 -10z"/>
<path d="M1118 203 c7 -3 16 -2 19 1 4 3 -2 6 -13 5 -11 0 -14 -3 -6 -6z"/>
<path d="M2239 193 c-13 -17 -13 -17 6 -3 11 8 22 16 24 17 2 2 0 3 -6 3 -6 0
-17 -8 -24 -17z"/>
<path d="M824 178 c-12 -14 -13 -18 -3 -10 9 6 18 10 21 7 2 -3 5 2 5 10 0 19
0 19 -23 -7z"/>
<path d="M1084 191 c4 -6 0 -11 -11 -12 -16 0 -16 -1 2 -9 23 -10 21 -11 -19
-16 -22 -2 -26 0 -18 8 15 15 15 28 2 28 -5 0 -9 -4 -7 -9 1 -5 -7 -16 -17
-24 -19 -14 -19 -15 -2 -42 17 -26 17 -28 1 -22 -9 4 -19 7 -21 7 -3 0 -2 5 2
12 5 7 3 8 -6 3 -10 -6 -12 -4 -6 10 7 18 6 18 -14 0 -11 -10 -20 -13 -20 -7
0 6 16 22 35 35 31 21 33 26 18 31 -9 4 -14 4 -11 0 4 -3 -6 -17 -21 -30 -32
-27 -50 -32 -31 -9 7 9 10 18 7 22 -4 3 -9 -2 -13 -11 -3 -9 -10 -13 -15 -10
-5 3 -9 1 -9 -3 0 -11 42 -38 56 -35 5 1 20 -7 31 -17 15 -14 23 -17 32 -8 18
18 13 -5 -6 -25 -16 -18 -16 -18 0 -12 9 3 17 11 17 18 0 6 5 4 11 -4 8 -12 9
-10 4 8 -6 21 -5 22 14 11 16 -11 18 -16 8 -29 -11 -13 -10 -13 6 -1 18 14 18
15 -5 32 -12 10 -20 21 -16 24 4 4 18 -4 31 -17 13 -13 30 -22 37 -20 7 3 10
0 6 -7 -11 -18 6 -13 19 6 18 24 8 47 -12 28 -8 -8 -20 -15 -26 -15 -7 0 -4 7
5 14 17 12 15 26 -4 26 -5 0 -6 -5 -2 -12 4 -6 3 -8 -4 -5 -12 8 -10 32 3 44
4 4 5 2 1 -4 -4 -7 -2 -13 4 -13 7 0 10 6 7 13 -2 6 -11 11 -19 9 -8 -1 -15 5
-15 13 0 8 4 15 8 15 12 0 39 -30 39 -43 0 -8 3 -7 9 2 6 9 11 10 15 2 4 -6 2
-11 -5 -11 -16 0 -3 -13 16 -16 17 -3 20 12 5 21 -6 4 -8 10 -5 14 7 12 -32
44 -44 37 -6 -4 -20 -2 -32 5 -15 8 -19 8 -15 0z m75 -24 c8 -10 7 -14 -4 -14
-8 0 -12 4 -9 8 2 4 -2 10 -8 12 -8 4 -9 6 -2 6 6 1 17 -5 23 -12z m-121 -29
c9 -9 12 -9 12 2 0 9 5 8 16 -6 8 -10 13 -14 10 -7 -4 6 -2 14 4 18 5 3 10 -2
10 -12 0 -11 6 -25 13 -32 6 -8 0 -6 -15 4 -26 16 -28 16 -34 1 -5 -12 -10
-14 -20 -6 -7 7 -10 19 -7 27 4 11 2 14 -5 9 -7 -4 -12 -2 -12 3 0 14 13 14
28 -1z"/>
<path d="M1040 120 c-9 -6 -10 -10 -3 -10 6 0 15 5 18 10 8 12 4 12 -15 0z"/>
<path d="M1355 190 c-3 -6 0 -16 7 -24 12 -11 17 -11 33 0 10 8 16 15 12 15
-4 1 -10 2 -14 3 -5 1 -13 5 -20 9 -6 4 -14 3 -18 -3z"/>
<path d="M760 186 c0 -2 8 -10 18 -17 15 -13 16 -12 3 4 -13 16 -21 21 -21 13z"/>
<path d="M925 180 c-3 -6 1 -7 9 -4 18 7 21 14 7 14 -6 0 -13 -4 -16 -10z"/>
<path d="M2270 175 c0 -8 2 -15 4 -15 2 0 6 7 10 15 3 8 1 15 -4 15 -6 0 -10
-7 -10 -15z"/>
<path d="M2430 183 c0 -6 8 -17 18 -24 16 -13 16 -13 2 6 -8 11 -16 22 -17 24
-2 2 -3 0 -3 -6z"/>
<path d="M900 172 c0 -6 -9 -9 -20 -7 -17 3 -19 1 -10 -16 6 -10 16 -19 23
-18 9 0 9 2 0 6 -7 2 -13 9 -13 14 0 6 4 8 9 4 11 -6 26 13 17 22 -3 4 -6 1
-6 -5z"/>
<path d="M1215 153 c3 -20 -23 -55 -35 -48 -4 3 -7 -6 -6 -19 1 -16 6 -22 15
-18 8 3 12 1 8 -5 -3 -5 0 -10 7 -10 8 0 12 6 9 14 -3 7 5 16 18 21 19 7 20
10 5 15 -11 5 -15 14 -12 32 3 13 1 27 -4 30 -4 3 -7 -3 -5 -12z m0 -62 c-8
-14 -25 -14 -25 0 0 5 5 7 10 4 6 -3 10 -1 10 6 0 7 3 10 6 6 3 -3 3 -10 -1
-16z"/>
<path d="M2376 161 c8 -8 43 -8 38 0 -2 4 -13 7 -24 6 -10 -1 -17 -3 -14 -6z"/>
<path d="M754 152 c4 -7 3 -19 -3 -26 -8 -9 -7 -13 4 -13 8 0 11 5 8 10 -4 6
0 8 9 5 9 -4 15 0 15 8 0 8 -3 12 -5 9 -3 -3 -12 1 -20 8 -13 10 -14 9 -8 -1z"/>
<path d="M2476 147 c3 -10 9 -15 12 -12 3 3 0 11 -7 18 -10 9 -11 8 -5 -6z"/>
<path d="M854 136 c5 -13 2 -17 -9 -12 -8 3 -15 1 -15 -4 0 -12 27 -13 34 -2
2 4 0 14 -6 22 -8 12 -9 11 -4 -4z"/>
<path d="M1931 137 c-8 -10 -7 -19 5 -33 15 -18 15 -18 10 0 -4 10 -1 25 5 32
7 8 7 14 1 14 -5 0 -15 -6 -21 -13z"/>
<path d="M2332 134 c-23 -16 -29 -34 -11 -34 5 0 8 4 4 9 -7 13 32 34 47 25 7
-4 8 -3 4 4 -9 16 -17 15 -44 -4z"/>
<path d="M2420 140 c-12 -7 -10 -9 7 -7 12 0 19 5 17 9 -6 10 -6 10 -24 -2z"/>
<path d="M2555 140 c3 -5 8 -10 11 -10 2 0 4 5 4 10 0 6 -5 10 -11 10 -5 0 -7
-4 -4 -10z"/>
<path d="M810 111 c0 -7 -4 -10 -8 -7 -4 2 -8 -6 -8 -19 0 -20 11 -27 11 -7 0
4 4 13 9 20 4 7 5 16 2 19 -3 4 -6 1 -6 -6z"/>
<path d="M869 103 c-13 -16 -12 -17 4 -4 16 13 21 21 13 21 -2 0 -10 -8 -17
-17z"/>
<path d="M896 105 c-3 -8 -1 -15 4 -15 6 0 10 7 10 15 0 8 -2 15 -4 15 -2 0
-6 -7 -10 -15z"/>
<path d="M2357 101 c-4 -17 -3 -21 5 -13 5 5 8 16 6 23 -3 8 -7 3 -11 -10z"/>
<path d="M928 98 c11 -14 10 -17 -5 -21 -10 -3 -3 -4 15 -2 19 2 37 7 40 11 4
4 0 4 -8 2 -8 -3 -24 2 -35 11 -18 15 -19 15 -7 -1z"/>
<path d="M2256 95 c4 -8 8 -15 10 -15 2 0 4 7 4 15 0 8 -4 15 -10 15 -5 0 -7
-7 -4 -15z"/>
<path d="M829 83 c-13 -16 -12 -17 4 -4 9 7 17 15 17 17 0 8 -8 3 -21 -13z"/>
<path d="M1740 75 c-7 -8 -16 -13 -20 -10 -4 3 -13 -2 -19 -9 -19 -23 4 -27
27 -6 14 14 22 16 25 7 2 -7 8 -8 13 -3 5 5 4 11 -4 13 -6 3 -10 9 -6 14 9 14
-2 10 -16 -6z"/>
<path d="M2380 80 c-8 -5 -10 -10 -5 -10 6 0 17 5 25 10 8 5 11 10 5 10 -5 0
-17 -5 -25 -10z"/>
<path d="M870 71 c0 -6 5 -13 12 -17 6 -4 8 -3 4 4 -3 5 0 13 6 15 8 3 6 6 -4
6 -10 1 -18 -3 -18 -8z"/>
<path d="M991 64 c0 -11 3 -14 6 -6 3 7 2 16 -1 19 -3 4 -6 -2 -5 -13z"/>
<path d="M2206 63 c-6 -14 -5 -15 5 -6 7 7 10 15 7 18 -3 3 -9 -2 -12 -12z"/>
<path d="M1430 59 c0 -5 5 -7 10 -4 6 3 10 8 10 11 0 2 -4 4 -10 4 -5 0 -10
-5 -10 -11z"/>
<path d="M2155 61 c-4 -7 0 -8 11 -4 11 4 15 3 10 -5 -3 -6 -2 -13 3 -16 5 -4
8 2 7 11 -3 20 -21 28 -31 14z"/>
<path d="M1457 53 c-4 -3 -7 -11 -7 -17 0 -6 5 -5 12 2 6 6 9 14 7 17 -3 3 -9
2 -12 -2z"/>
<path d="M1095 40 c-3 -5 -1 -10 4 -10 6 0 11 5 11 10 0 6 -2 10 -4 10 -3 0
-8 -4 -11 -10z"/>
<path d="M1159 48 c-7 -23 -4 -35 7 -35 11 0 11 3 1 16 -10 12 -9 14 6 8 11
-4 16 -3 12 3 -5 9 -24 14 -26 8z"/>
<path d="M1899 48 c-6 -21 -5 -37 2 -32 5 3 7 9 4 14 -3 4 1 11 7 13 10 4 10
6 1 6 -7 1 -13 0 -14 -1z"/>
<path d="M1595 30 c3 -5 8 -10 11 -10 2 0 4 5 4 10 0 6 -5 10 -11 10 -5 0 -7
-4 -4 -10z"/>
<path d="M1730 30 c-9 -6 -10 -10 -3 -10 6 0 15 5 18 10 8 12 4 12 -15 0z"/>
<path d="M1771 24 c0 -11 3 -14 6 -6 3 7 2 16 -1 19 -3 4 -6 -2 -5 -13z"/>
<path d="M1828 33 c7 -3 16 -2 19 1 4 3 -2 6 -13 5 -11 0 -14 -3 -6 -6z"/>
<path d="M1226 18 c3 -5 10 -6 15 -3 13 9 11 12 -6 12 -8 0 -12 -4 -9 -9z"/>
<path d="M1330 19 c0 -5 5 -7 10 -4 6 3 10 8 10 11 0 2 -4 4 -10 4 -5 0 -10
-5 -10 -11z"/>
<path d="M1567 19 c7 -7 15 -10 18 -7 3 3 -2 9 -12 12 -14 6 -15 5 -6 -5z"/>
<path d="M1926 18 c3 -5 10 -6 15 -3 13 9 11 12 -6 12 -8 0 -12 -4 -9 -9z"/>
<path d="M2036 18 c3 -5 10 -6 15 -3 13 9 11 12 -6 12 -8 0 -12 -4 -9 -9z"/>
</g>
</svg>
